<mxfile host="Electron" modified="2024-04-18T23:28:54.170Z" agent="Mozilla/5.0 (Windows NT 10.0; Win64; x64) AppleWebKit/537.36 (KHTML, like Gecko) draw.io/24.2.5 Chrome/120.0.6099.109 Electron/28.1.0 Safari/537.36" etag="i2WGnrZNwUZQ5VAlxYGe" version="24.2.5" type="device">
  <diagram name="ページ1" id="0z5dB2bdsfLfFDpfpDFq">
    <mxGraphModel dx="2401" dy="-2397" grid="1" gridSize="10" guides="1" tooltips="1" connect="1" arrows="1" fold="1" page="1" pageScale="1" pageWidth="827" pageHeight="1169" math="0" shadow="0">
      <root>
        <mxCell id="0" />
        <mxCell id="1" parent="0" />
        <mxCell id="-8JmMAzlH7m0WHt6DJnb-1" value="" style="swimlane;whiteSpace=wrap;html=1;startSize=90;fillColor=#002b62;strokeColor=none;fontSize=16;fontColor=#FFFFFF;rounded=1;arcSize=4;shadow=0;glass=0;swimlaneFillColor=#F6F6F6;" vertex="1" parent="1">
          <mxGeometry x="-105" y="3690" width="877" height="610" as="geometry" />
        </mxCell>
        <mxCell id="-8JmMAzlH7m0WHt6DJnb-2" value="" style="swimlane;whiteSpace=wrap;html=1;startSize=60;fontSize=26;fillColor=#00A9AC;fontColor=#5D5D5D;strokeColor=#999999;rounded=1;arcSize=6;" vertex="1" parent="-8JmMAzlH7m0WHt6DJnb-1">
          <mxGeometry x="30" y="120" width="520" height="420" as="geometry" />
        </mxCell>
        <mxCell id="-8JmMAzlH7m0WHt6DJnb-3" style="edgeStyle=orthogonalEdgeStyle;rounded=0;orthogonalLoop=1;jettySize=auto;html=1;exitX=0.5;exitY=1;exitDx=0;exitDy=0;entryX=0.5;entryY=0;entryDx=0;entryDy=0;endArrow=none;endFill=0;strokeColor=#999999;" edge="1" parent="-8JmMAzlH7m0WHt6DJnb-2" target="-8JmMAzlH7m0WHt6DJnb-8">
          <mxGeometry relative="1" as="geometry">
            <mxPoint x="140.00499999999965" y="265" as="sourcePoint" />
          </mxGeometry>
        </mxCell>
        <mxCell id="-8JmMAzlH7m0WHt6DJnb-4" style="edgeStyle=orthogonalEdgeStyle;rounded=0;orthogonalLoop=1;jettySize=auto;html=1;exitX=0.5;exitY=1;exitDx=0;exitDy=0;entryX=0.5;entryY=0;entryDx=0;entryDy=0;endArrow=none;endFill=0;strokeColor=#999999;" edge="1" parent="-8JmMAzlH7m0WHt6DJnb-2" target="-8JmMAzlH7m0WHt6DJnb-9">
          <mxGeometry relative="1" as="geometry">
            <mxPoint x="379.9949999999999" y="270" as="sourcePoint" />
          </mxGeometry>
        </mxCell>
        <mxCell id="-8JmMAzlH7m0WHt6DJnb-5" value="" style="shape=flexArrow;endArrow=classic;html=1;rounded=0;exitX=1;exitY=0.5;exitDx=0;exitDy=0;entryX=0;entryY=0.5;entryDx=0;entryDy=0;fillColor=#5335E5;strokeColor=none;" edge="1" parent="-8JmMAzlH7m0WHt6DJnb-2">
          <mxGeometry width="50" height="50" relative="1" as="geometry">
            <mxPoint x="200.82999999999993" y="220" as="sourcePoint" />
            <mxPoint x="324.17999999999984" y="220" as="targetPoint" />
          </mxGeometry>
        </mxCell>
        <mxCell id="-8JmMAzlH7m0WHt6DJnb-6" value="ラベル付与" style="html=1;shadow=0;dashed=0;align=center;verticalAlign=middle;shape=mxgraph.arrows2.arrow;dy=0;dx=30;notch=30;fontSize=18;fontStyle=1;fontColor=#FFFFFF;strokeColor=none;fillColor=#00A9AC;" vertex="1" parent="-8JmMAzlH7m0WHt6DJnb-2">
          <mxGeometry x="12.5" y="80" width="255" height="60" as="geometry" />
        </mxCell>
        <mxCell id="-8JmMAzlH7m0WHt6DJnb-7" value="評価" style="html=1;shadow=0;dashed=0;align=center;verticalAlign=middle;shape=mxgraph.arrows2.arrow;dy=0;dx=30;notch=30;fontSize=18;fontStyle=1;fontColor=#FFFFFF;strokeColor=none;fillColor=#00A9AC;" vertex="1" parent="-8JmMAzlH7m0WHt6DJnb-2">
          <mxGeometry x="252.5" y="80" width="255" height="60" as="geometry" />
        </mxCell>
        <mxCell id="-8JmMAzlH7m0WHt6DJnb-8" value="ラベル付与設定" style="rounded=1;whiteSpace=wrap;html=1;fontSize=16;fontStyle=1;fontColor=#5D5D5D;strokeColor=#002B62;shadow=0;spacingLeft=0;fillColor=#FFFFFF;" vertex="1" parent="-8JmMAzlH7m0WHt6DJnb-2">
          <mxGeometry x="27.5" y="300" width="225" height="60" as="geometry" />
        </mxCell>
        <mxCell id="-8JmMAzlH7m0WHt6DJnb-9" value="ルール設定" style="rounded=1;whiteSpace=wrap;html=1;fontSize=16;fontStyle=1;fontColor=#5D5D5D;strokeColor=#002B62;shadow=0;spacingLeft=0;fillColor=#FFFFFF;" vertex="1" parent="-8JmMAzlH7m0WHt6DJnb-2">
          <mxGeometry x="267.5" y="300" width="225" height="60" as="geometry" />
        </mxCell>
        <mxCell id="-8JmMAzlH7m0WHt6DJnb-10" value="" style="shape=image;verticalLabelPosition=bottom;labelBackgroundColor=default;verticalAlign=top;aspect=fixed;imageAspect=0;image=data:image/svg+xml,PHN2ZyB4bWxuczp4bGluaz0iaHR0cDovL3d3dy53My5vcmcvMTk5OS94bGluayIgeG1sbnM9Imh0dHA6Ly93d3cudzMub3JnLzIwMDAvc3ZnIiB4bWw6c3BhY2U9InByZXNlcnZlIiBzdHlsZT0id2lkdGg6IDI1NnB4OyBoZWlnaHQ6IDI1NnB4OyBvcGFjaXR5OiAxOyIgdmlld0JveD0iMCAwIDUxMiA1MTIiIHk9IjBweCIgeD0iMHB4IiBpZD0iX3gzMl8iIHZlcnNpb249IjEuMSI+JiN4YTs8c3R5bGUgdHlwZT0idGV4dC9jc3MiPiYjeGE7CS5zdDB7ZmlsbDojNEI0QjRCO30mI3hhOzwvc3R5bGU+JiN4YTs8Zz4mI3hhOwk8cGF0aCBzdHlsZT0iZmlsbDogcmdiKDkzLCA5MywgOTMpOyIgZD0iTTI3Ny4wMjgsMjYyLjc1M2wtMjYuNjEyLTIuODgyYy0zLjY0MS0wLjM5NC02LjcyLTIuNzg4LTguMTE4LTYuMTcyYy0wLjAxNy0wLjA0LTAuMDM0LTAuMDgxLTAuMDUtMC4xMjEmIzEwOyYjOTsmIzk7Yy0xLjQwMy0zLjM4My0wLjkyLTcuMjUyLDEuMzc2LTEwLjEwNWwxNi43OC0yMC44NTVjMy4xNjQtMy45MzIsMi44NTctOS42MTYtMC43MTItMTMuMTg1bC0zMS40MTEtMzEuNDExJiMxMDsmIzk7JiM5O2MtMy41NjktMy41NjktOS4yNTItMy44NzYtMTMuMTg1LTAuNzEybC0yMC44NjQsMTYuNzg3Yy0yLjg0NiwyLjI5LTYuNzA0LDIuNzc2LTEwLjA4MiwxLjM4NmMtMC4wMzctMC4wMTUtMC4wNzQtMC4wMy0wLjExMS0wLjA0NSYjMTA7JiM5OyYjOTtjLTMuMzk2LTEuMzk0LTUuNzk5LTQuNDc4LTYuMTk0LTguMTI4bC0yLjg4My0yNi42MjRjLTAuNTQzLTUuMDE4LTQuNzc5LTguODItOS44MjYtOC44MmgtNDQuNDIyYy01LjA0NywwLTkuMjgzLDMuODAyLTkuODI2LDguODImIzEwOyYjOTsmIzk7bC0yLjg4MywyNi42MjRjLTAuMzk1LDMuNjQ5LTIuNzk5LDYuNzM0LTYuMTk1LDguMTI4Yy0wLjAzNywwLjAxNS0wLjA3NCwwLjAzLTAuMTEsMC4wNDVjLTMuMzc4LDEuMzkxLTcuMjM2LDAuOTA0LTEwLjA4Mi0xLjM4NiYjMTA7JiM5OyYjOTtMNzAuNzUyLDE3Ny4zMWMtMy45MzItMy4xNjQtOS42MTYtMi44NTctMTMuMTg0LDAuNzEybC0zMS40MTEsMzEuNDExYy0zLjU2OSwzLjU2OS0zLjg3Niw5LjI1My0wLjcxMiwxMy4xODVsMTYuNzgsMjAuODU1JiMxMDsmIzk7JiM5O2MyLjI5NiwyLjg1NCwyLjc3OSw2LjcyMiwxLjM3NiwxMC4xMDVjLTAuMDE3LDAuMDQtMC4wMzMsMC4wODEtMC4wNSwwLjEyMWMtMS4zOTksMy4zODQtNC40NzcsNS43NzgtOC4xMTgsNi4xNzJMOC44MiwyNjIuNzUzJiMxMDsmIzk7JiM5O0MzLjgwMiwyNjMuMjk2LDAsMjY3LjUzMiwwLDI3Mi41Nzl2NDQuNDIyYzAsNS4wNDcsMy44MDIsOS4yODMsOC44Miw5LjgyNmwyNi42MTIsMi44ODFjMy42NDEsMC4zOTQsNi43MiwyLjc4OCw4LjExOCw2LjE3MiYjMTA7JiM5OyYjOTtjMC4wMTcsMC4wNCwwLjAzMywwLjA4MSwwLjA1LDAuMTIxYzEuNDAzLDMuMzgzLDAuOTIsNy4yNTItMS4zNzYsMTAuMTA2bC0xNi43OCwyMC44NTVjLTMuMTY0LDMuOTMyLTIuODU3LDkuNjE2LDAuNzEyLDEzLjE4NSYjMTA7JiM5OyYjOTtsMzEuNDExLDMxLjQxMWMzLjU2OSwzLjU2OSw5LjI1MywzLjg3NiwxMy4xODUsMC43MTJsMjAuODY0LTE2Ljc4N2MyLjg0Ni0yLjI5MSw2LjcwNC0yLjc3NywxMC4wODItMS4zODYmIzEwOyYjOTsmIzk7YzAuMDM3LDAuMDE1LDAuMDc0LDAuMDMsMC4xMTEsMC4wNDVjMy4zOTYsMS4zOTQsNS43OTksNC40NzgsNi4xOTQsOC4xMjhsMi44ODMsMjYuNjI0YzAuNTQzLDUuMDE4LDQuNzc5LDguODIsOS44MjYsOC44Mmg0NC40MjImIzEwOyYjOTsmIzk7YzUuMDQ3LDAsOS4yODMtMy44MDIsOS44MjYtOC44MmwyLjg4My0yNi42MjRjMC4zOTUtMy42NDksMi43OTgtNi43MzQsNi4xOTQtOC4xMjhjMC4wMzctMC4wMTUsMC4wNzQtMC4wMywwLjExLTAuMDQ1JiMxMDsmIzk7JiM5O2MzLjM3OC0xLjM5MSw3LjIzNi0wLjkwNSwxMC4wODMsMS4zODZsMjAuODY0LDE2Ljc4N2MzLjkzMiwzLjE2NCw5LjYxNiwyLjg1NywxMy4xODUtMC43MTJsMzEuNDExLTMxLjQxMSYjMTA7JiM5OyYjOTtjMy41NjktMy41NjksMy44NzUtOS4yNTMsMC43MTItMTMuMTg1bC0xNi43OC0yMC44NTVjLTIuMjk2LTIuODUzLTIuNzc5LTYuNzIyLTEuMzc2LTEwLjEwNmMwLjAxNi0wLjA0LDAuMDMzLTAuMDgsMC4wNS0wLjEyMSYjMTA7JiM5OyYjOTtjMS4zOTktMy4zODQsNC40NzctNS43NzgsOC4xMTgtNi4xNzJsMjYuNjEyLTIuODgxYzUuMDE3LTAuNTQ0LDguODItNC43OCw4LjgyLTkuODI2di00NC40MjImIzEwOyYjOTsmIzk7QzI4NS44NDgsMjY3LjUzMiwyODIuMDQ2LDI2My4yOTYsMjc3LjAyOCwyNjIuNzUzeiBNMTQyLjkyNCwzMzkuMzQ5Yy0yNC42MDksMC00NC41NTktMTkuOTUtNDQuNTU5LTQ0LjU1OSYjMTA7JiM5OyYjOTtjMC0yNC42MDksMTkuOTUtNDQuNTU5LDQ0LjU1OS00NC41NTlzNDQuNTU5LDE5Ljk1LDQ0LjU1OSw0NC41NTlDMTg3LjQ4MywzMTkuMzk5LDE2Ny41MzMsMzM5LjM0OSwxNDIuOTI0LDMzOS4zNDl6IiBjbGFzcz0ic3QwIi8+JiN4YTsJPHBhdGggc3R5bGU9ImZpbGw6IHJnYig5MywgOTMsIDkzKTsiIGQ9Ik01MDcuNDY5LDIxOC4yMTJMNDg5LjIsMjAzLjc4NWMtMi45MS0yLjI5OC00LjUyNi01LjgyMS00LjUyOC05LjUzYzAtMC4wMzksMC0wLjA3OCwwLTAuMTE4JiMxMDsmIzk7JiM5O2MtMC4wMDYtMy43MTcsMS42MTEtNy4yNDksNC41MjgtOS41NTJsMTguMjY5LTE0LjQyOGM0LjE4NC0zLjMwNCw1LjY2NC04Ljk4NSwzLjYyNC0xMy45MWwtOC4wMjUtMTkuMzc0JiMxMDsmIzk7JiM5O2MtMi4wNC00LjkyNi03LjEwNC03Ljg5Ni0xMi4zOTgtNy4yNzRsLTIzLjEyLDIuNzE2Yy0zLjY5MiwwLjQzNC03LjMzMy0wLjkyLTkuOTU2LTMuNTUzYy0wLjAyNy0wLjAyOC0wLjA1NS0wLjA1Ni0wLjA4My0wLjA4MyYjMTA7JiM5OyYjOTtjLTIuNjIyLTIuNjI0LTMuOTctNi4yNTgtMy41MzctOS45NDFsMi43MTYtMjMuMTE5YzAuNjIyLTUuMjk0LTIuMzQ5LTEwLjM1OC03LjI3NC0xMi4zOThsLTE5LjM3NC04LjAyNCYjMTA7JiM5OyYjOTtjLTQuOTI1LTIuMDQtMTAuNjA2LTAuNTYtMTMuOTEsMy42MjNsLTE0LjQyOCwxOC4yNjhjLTIuMjk5LDIuOTExLTUuODIyLDQuNTI2LTkuNTMsNC41MjhjLTAuMDQsMC0wLjA3OSwwLTAuMTE4LDAmIzEwOyYjOTsmIzk7Yy0zLjcxNiwwLjAwNi03LjI0OC0xLjYxMS05LjU1Mi00LjUyOGwtMTQuNDI4LTE4LjI2OWMtMy4zMDQtNC4xODQtOC45ODYtNS42NjQtMTMuOTExLTMuNjI0bC0xOS4zNzQsOC4wMjUmIzEwOyYjOTsmIzk7Yy00LjkyNSwyLjA0LTcuODk2LDcuMTA0LTcuMjc0LDEyLjM5OWwyLjcxNiwyMy4xMmMwLjQzNCwzLjY5MS0wLjkyLDcuMzMyLTMuNTUzLDkuOTU2Yy0wLjAyOCwwLjAyOC0wLjA1NiwwLjA1Ni0wLjA4NCwwLjA4NCYjMTA7JiM5OyYjOTtjLTIuNjI0LDIuNjIyLTYuMjU3LDMuOTctOS45NDEsMy41MzdsLTIzLjExOS0yLjcxNmMtNS4yOTUtMC42MjItMTAuMzU4LDIuMzQ5LTEyLjM5OCw3LjI3NGwtOC4wMjUsMTkuMzc0JiMxMDsmIzk7JiM5O2MtMi4wNCw0LjkyNS0wLjU2LDEwLjYwNywzLjYyNCwxMy45MTFsMTguMjY4LDE0LjQyN2MyLjkxMSwyLjI5OSw0LjUyNiw1LjgyMSw0LjUyOCw5LjUzYzAsMC4wNCwwLDAuMDc5LDAsMC4xMTgmIzEwOyYjOTsmIzk7YzAuMDA3LDMuNzE3LTEuNjExLDcuMjQ5LTQuNTI4LDkuNTUybC0xOC4yNjksMTQuNDI4Yy00LjE4NCwzLjMwNC01LjY2NCw4Ljk4NS0zLjYyMywxMy45MWw4LjAyNCwxOS4zNzQmIzEwOyYjOTsmIzk7YzIuMDQsNC45MjUsNy4xMDQsNy44OTYsMTIuMzk4LDcuMjc0bDIzLjEyMS0yLjcxNmMzLjY5MS0wLjQzNCw3LjMzMiwwLjkyLDkuOTU2LDMuNTUzYzAuMDI4LDAuMDI4LDAuMDU1LDAuMDU2LDAuMDgzLDAuMDgzJiMxMDsmIzk7JiM5O2MyLjYyMiwyLjYyNCwzLjk3LDYuMjU3LDMuNTM3LDkuOTQxbC0yLjcxNiwyMy4xMmMtMC42MjIsNS4yOTUsMi4zNDksMTAuMzU4LDcuMjc0LDEyLjM5OGwxOS4zNzQsOC4wMjUmIzEwOyYjOTsmIzk7YzQuOTI1LDIuMDQsMTAuNjA2LDAuNTYsMTMuOTExLTMuNjI0bDE0LjQyNy0xOC4yNjhjMi4yOTktMi45MTEsNS44MjEtNC41MjYsOS41My00LjUyOGMwLjAzOSwwLDAuMDc4LDAsMC4xMTgsMCYjMTA7JiM5OyYjOTtjMy43MTYtMC4wMDcsNy4yNDksMS42MTEsOS41NTIsNC41MjhsMTQuNDI4LDE4LjI2OWMzLjMwNCw0LjE4NCw4Ljk4NSw1LjY2NCwxMy45MTEsMy42MjRsMTkuMzc0LTguMDI1JiMxMDsmIzk7JiM5O2M0LjkyNS0yLjA0LDcuODk2LTcuMTA0LDcuMjc0LTEyLjM5OGwtMi43MTYtMjMuMTJjLTAuNDM0LTMuNjkxLDAuOTItNy4zMzMsMy41NTMtOS45NTZjMC4wMjgtMC4wMjgsMC4wNTYtMC4wNTYsMC4wODQtMC4wODMmIzEwOyYjOTsmIzk7YzIuNjI0LTIuNjIxLDYuMjU3LTMuOTcsOS45NDEtMy41MzdsMjMuMTIsMi43MTZjNS4yOTUsMC42MjIsMTAuMzU4LTIuMzQ5LDEyLjM5OC03LjI3NGw4LjAyNS0xOS4zNzQmIzEwOyYjOTsmIzk7QzUxMy4xMzIsMjI3LjE5OCw1MTEuNjUzLDIyMS41MTYsNTA3LjQ2OSwyMTguMjEyeiBNNDAzLjk0OCwyMjguNzAxYy0xOC41ODQsNy42OTgtMzkuODktMS4xMjctNDcuNTg4LTE5LjcxMiYjMTA7JiM5OyYjOTtzMS4xMjgtMzkuODksMTkuNzEyLTQ3LjU4OGMxOC41ODQtNy42OTgsMzkuODksMS4xMjcsNDcuNTg4LDE5LjcxMkM0MzEuMzU3LDE5OS42OTcsNDIyLjUzMiwyMjEuMDA0LDQwMy45NDgsMjI4LjcwMXoiIGNsYXNzPSJzdDAiLz4mI3hhOzwvZz4mI3hhOzwvc3ZnPg==;" vertex="1" parent="-8JmMAzlH7m0WHt6DJnb-2">
          <mxGeometry x="324" y="160" width="112" height="112" as="geometry" />
        </mxCell>
        <mxCell id="-8JmMAzlH7m0WHt6DJnb-11" value="" style="rounded=1;whiteSpace=wrap;html=1;fillColor=none;strokeColor=#5D5D5D;strokeWidth=7;" vertex="1" parent="-8JmMAzlH7m0WHt6DJnb-2">
          <mxGeometry x="80" y="177" width="120" height="92" as="geometry" />
        </mxCell>
        <mxCell id="-8JmMAzlH7m0WHt6DJnb-12" value="" style="rounded=0;whiteSpace=wrap;html=1;fillColor=#5D5D5D;strokeColor=none;" vertex="1" parent="-8JmMAzlH7m0WHt6DJnb-2">
          <mxGeometry x="80" y="190" width="119" height="10" as="geometry" />
        </mxCell>
        <mxCell id="-8JmMAzlH7m0WHt6DJnb-13" value="" style="rounded=1;whiteSpace=wrap;html=1;arcSize=50;strokeColor=none;fillColor=#5D5D5D;" vertex="1" parent="-8JmMAzlH7m0WHt6DJnb-2">
          <mxGeometry x="80" y="177" width="120" height="23" as="geometry" />
        </mxCell>
        <mxCell id="-8JmMAzlH7m0WHt6DJnb-14" value="" style="rounded=1;whiteSpace=wrap;html=1;strokeColor=none;arcSize=50;" vertex="1" parent="-8JmMAzlH7m0WHt6DJnb-2">
          <mxGeometry x="135" y="184.5" width="59.5" height="8" as="geometry" />
        </mxCell>
        <mxCell id="-8JmMAzlH7m0WHt6DJnb-15" value="API" style="text;html=1;align=center;verticalAlign=middle;resizable=0;points=[];autosize=1;strokeColor=none;fillColor=none;fontColor=#5D5D5D;fontSize=39;fontStyle=1" vertex="1" parent="-8JmMAzlH7m0WHt6DJnb-2">
          <mxGeometry x="100" y="204" width="90" height="60" as="geometry" />
        </mxCell>
        <mxCell id="-8JmMAzlH7m0WHt6DJnb-16" value="" style="shape=image;verticalLabelPosition=bottom;labelBackgroundColor=default;verticalAlign=top;aspect=fixed;imageAspect=0;image=data:image/svg+xml,PHN2ZyB4bWxuczp4bGluaz0iaHR0cDovL3d3dy53My5vcmcvMTk5OS94bGluayIgeG1sbnM9Imh0dHA6Ly93d3cudzMub3JnLzIwMDAvc3ZnIiB4bWw6c3BhY2U9InByZXNlcnZlIiBzdHlsZT0iZW5hYmxlLWJhY2tncm91bmQ6bmV3IDAgMCA3NjggMTE1OyIgdmlld0JveD0iMCAwIDc2OCAxMTUiIGhlaWdodD0iMTE1cHgiIHdpZHRoPSI3NjhweCIgeT0iMHB4IiB4PSIwcHgiIGlkPSLjg6zjgqTjg6Tjg7xfMSIgdmVyc2lvbj0iMS4xIj4mI3hhOzxzdHlsZSB0eXBlPSJ0ZXh0L2NzcyI+JiN4YTsJLnN0MHtmaWxsOm5vbmU7fSYjeGE7CS5zdDF7ZmlsbDojRDNEM0Q0O30mI3hhOwkuc3Qye2ZpbGw6I0ZGRkZGRjt9JiN4YTs8L3N0eWxlPiYjeGE7PHJlY3QgaGVpZ2h0PSIxMTUiIHdpZHRoPSI3NjgiIGNsYXNzPSJzdDAiLz4mI3hhOzxnPiYjeGE7CTxnPiYjeGE7CQk8cGF0aCBkPSJNMzUyLjMsMzAuNjVjMCwxMS45OS02LjA4LDE4LjExLTE0LjYzLDE4LjExYy05LjA4LDAtMTQuMjItNy42LTE0LjIyLTE3LjU4YzAtMTAuMjksNS42OC0xNy44NCwxNC42Ny0xNy44NCYjMTA7JiM5OyYjOTsmIzk7QzM0Ny42NSwxMy4zNCwzNTIuMywyMS40OCwzNTIuMywzMC42NXogTTMzMC4zOSwzMS4wNWMwLDYuNzUsMi42NCwxMi4zLDcuNTEsMTIuM2M0LjkyLDAsNy40Ny01LjUsNy40Ny0xMi40MyYjMTA7JiM5OyYjOTsmIzk7YzAtNi4zMS0yLjM3LTEyLjE3LTcuNDMtMTIuMTdDMzMyLjc2LDE4Ljc1LDMzMC4zOSwyNC43NSwzMzAuMzksMzEuMDV6IiBjbGFzcz0ic3QxIi8+JiN4YTsJCTxwYXRoIGQ9Ik0zNjIuODUsMjYuNzZjMS42MS0yLjU1LDQuMTYtMy45Myw3LjM4LTMuOTNjNS40NiwwLDkuNDgsNS4xLDkuNDgsMTIuNzVjMCw5LjE3LTUuMTksMTMuMTktMTAuMjQsMTMuMTkmIzEwOyYjOTsmIzk7JiM5O2MtMi43MywwLTQuODMtMS4yNS01LjktMi45MWgtMC4wOXYxMi4zOWgtNi42MlYzMS41YzAtMy4yMi0wLjA5LTUuODYtMC4xOC04LjE0aDUuNzdsMC4zMSwzLjRIMzYyLjg1eiBNMzYzLjQ3LDM4LjIxJiMxMDsmIzk7JiM5OyYjOTtjMCwzLjYyLDIuMTksNS4zNyw0LjQzLDUuMzdjMy4zNiwwLDUuMS0zLjMxLDUuMS03Ljc4YzAtNC40My0xLjctNy42NS00Ljk2LTcuNjVjLTIuNTUsMC00LjU2LDIuNDItNC41Niw1LjQxVjM4LjIxeiIgY2xhc3M9InN0MSIvPiYjeGE7CQk8cGF0aCBkPSJNNDAzLjAyLDQ3LjI5Yy0yLjA2LDAuODktNC45NiwxLjQzLTguMDUsMS40M2MtNy42OSwwLTEyLjA4LTQuODMtMTIuMDgtMTIuNTdjMC03LjE2LDQuMTEtMTMuMzMsMTEuNDEtMTMuMzMmIzEwOyYjOTsmIzk7JiM5O2M2LjA0LDAsOS45Nyw0LjI5LDkuOTcsMTIuMzRjMCwwLjk4LTAuMDQsMS45Mi0wLjE4LDIuNjRIMzg5LjJjMC4xOCw0LjI1LDMuMjIsNS45NSw2LjgsNS45NWMyLjQ2LDAsNC4zOC0wLjQ1LDYuMDgtMS4wMyYjMTA7JiM5OyYjOTsmIzk7TDQwMy4wMiw0Ny4yOXogTTM5OC4xNCwzMy4yYzAuMDQtMi41OS0wLjk4LTUuNzctNC4yNS01Ljc3Yy0zLjE4LDAtNC41MiwzLjMxLTQuNyw1Ljc3SDM5OC4xNHoiIGNsYXNzPSJzdDEiLz4mI3hhOwkJPHBhdGggZD0iTTQyMi4zMSwyOS4yNmMtMC40OS0wLjA5LTEuMDMtMC4xNC0xLjctMC4xNGMtMywwLTUuMjgsMi4wMS01LjI4LDYuMjZ2MTIuODhoLTYuNjJWMzEuMTQmIzEwOyYjOTsmIzk7JiM5O2MwLTMuMDktMC4wOS01LjU1LTAuMTgtNy43OGg1LjY4bDAuMjcsNC4zNGgwLjE4YzEuMTYtMy4yMiwzLjg1LTQuODgsNi4xNy00Ljg4YzAuNjMsMCwxLjAzLDAuMDQsMS40OCwwLjEzVjI5LjI2eiIgY2xhc3M9InN0MSIvPiYjeGE7CQk8cGF0aCBkPSJNNDQ0LjE2LDQyLjM3YzAsMi4xOSwwLjA5LDQuMzgsMC4zNiw1LjloLTUuOTVsLTAuNC0yLjU5aC0wLjEzYy0xLjQzLDEuOTctMy44NSwzLjA5LTYuNjIsMy4wOSYjMTA7JiM5OyYjOTsmIzk7Yy00LjYxLDAtNy40Ny0zLjQ0LTcuNDctNy40N2MwLTYuNCw1LjY4LTkuMzksMTMuNi05LjM5YzAtMi40Ni0wLjg1LTQuMzQtNC40Ny00LjM0Yy0yLjI4LDAtNC41MiwwLjcyLTYuMTMsMS43bC0xLjI1LTQuMjkmIzEwOyYjOTsmIzk7JiM5O2MxLjY1LTAuOTgsNC43NC0yLjEsOC42My0yLjFjNy43NCwwLDkuODQsNC45Miw5Ljg0LDEwLjM4VjQyLjM3eiBNNDM3LjcyLDM2LjE1Yy0zLjU4LDAtNy4yOSwwLjg1LTcuMjksNC40NyYjMTA7JiM5OyYjOTsmIzk7YzAsMi4zNywxLjQ4LDMuNCwzLjEzLDMuNGMxLjU3LDAsNC4xNi0xLjEyLDQuMTYtNC4yOVYzNi4xNXoiIGNsYXNzPSJzdDEiLz4mI3hhOwkJPHBhdGggZD0iTTQ1MC40NywxOC44bDYuNTMtMS45MnY2LjQ5aDUuNXY0Ljg4SDQ1N3YxMC44MmMwLDMsMC45NCw0LjI1LDIuOTUsNC4yNWMwLjk0LDAsMS40OC0wLjA5LDIuMTUtMC4yMiYjMTA7JiM5OyYjOTsmIzk7bDAuMDksNS4wNmMtMC45LDAuMzYtMi41MSwwLjU4LTQuNDMsMC41OGMtNy4xNiwwLTcuMjktNi4yMi03LjI5LTguOTlWMjguMjRoLTMuMjd2LTQuODhoMy4yN1YxOC44eiIgY2xhc3M9InN0MSIvPiYjeGE7CQk8cGF0aCBkPSJNNDY5LjU0LDIwLjA5Yy0yLjEsMC0zLjUzLTEuNTItMy41My0zLjUzYzAtMi4wNiwxLjQ3LTMuNTMsMy41My0zLjUzYzIuMTUsMCwzLjU4LDEuNDcsMy41OCwzLjUzJiMxMDsmIzk7JiM5OyYjOTtDNDczLjEyLDE4LjcxLDQ3MS42LDIwLjA5LDQ2OS41NCwyMC4wOXogTTQ3Mi44OSw0OC4yN2gtNi42MlYyMy4zNmg2LjYyVjQ4LjI3eiIgY2xhc3M9InN0MSIvPiYjeGE7CQk8cGF0aCBkPSJNNTAwLjM1LDM1LjYyYzAsOS40OC02LjA4LDEzLjE1LTExLjYzLDEzLjE1Yy02LjcxLDAtMTEuNTQtNC43NC0xMS41NC0xMi44NGMwLTguMzYsNS4wNS0xMy4xLDExLjgxLTEzLjEmIzEwOyYjOTsmIzk7JiM5O0M0OTUuOTcsMjIuODIsNTAwLjM1LDI4LjA2LDUwMC4zNSwzNS42MnogTTQ4OC44NiwyNy43Yy0zLjY3LDAtNC45Niw0LjI5LTQuOTYsOC4wOWMwLDQuNDMsMS43LDguMSw0LjkyLDguMSYjMTA7JiM5OyYjOTsmIzk7YzMuMTMsMCw0LjgzLTMuNzEsNC44My04LjE0QzQ5My42NCwzMS44Niw0OTIuMjYsMjcuNyw0ODguODYsMjcuN3oiIGNsYXNzPSJzdDEiLz4mI3hhOwkJPHBhdGggZD0iTTUyNi4wOSw0OC4yN2gtNi42MlYzMy43NGMwLTMuMDQtMC45OC01LjQ2LTMuOC01LjQ2Yy0xLjc5LDAtNC4yNSwxLjM5LTQuMjUsNS4xOXYxNC44aC02LjYydi0xNy40JiMxMDsmIzk7JiM5OyYjOTtjMC0yLjkxLTAuMDktNS4yOC0wLjE4LTcuNDdoNS43MmwwLjMxLDMuMzVoMC4xM2MxLjEyLTEuODMsMy41OC0zLjg5LDcuMi0zLjg5YzQuNTYsMCw4LjA5LDMuMTgsOC4wOSwxMC4xNVY0OC4yN3oiIGNsYXNzPSJzdDEiLz4mI3hhOwkJPHBhdGggZD0iTTU2Ny4yLDQ4LjI3aC02LjkzbC0yLjQ2LTkuMDhoLTkuMjFsLTIuMzcsOS4wOGgtNi43MWw5Ljc1LTM0LjM5aDguMzJMNTY3LjIsNDguMjd6IE01NTYuODcsMzQuMTgmIzEwOyYjOTsmIzk7JiM5O2wtMi4wNi03LjgzYy0wLjU0LTIuMTUtMS4xMi00LjkyLTEuNTYtNy4wMmgtMC4xNGMtMC40NSwyLjE1LTEuMDMsNC45Ni0xLjUyLDYuOThsLTIuMDYsNy44N0g1NTYuODd6IiBjbGFzcz0ic3QxIi8+JiN4YTsJCTxwYXRoIGQ9Ik01OTEuMzEsNDAuNjdjMCwyLjk1LDAuMTMsNS41LDAuMjIsNy42aC01Ljc3bC0wLjMxLTMuMzFoLTAuMTNjLTEuMDMsMS42MS0zLjMxLDMuOC03LjE2LDMuOCYjMTA7JiM5OyYjOTsmIzk7Yy00Ljc0LDAtNy45Ni0zLjA5LTcuOTYtMTAuNTZWMjMuMzZoNi42MnYxMy44N2MwLDMuNzYsMS4wNyw2LjEzLDMuOCw2LjEzYzIuMTUsMCw0LjA3LTEuODMsNC4wNy00LjY1VjIzLjM2aDYuNjJWNDAuNjd6IiBjbGFzcz0ic3QxIi8+JiN4YTsJCTxwYXRoIGQ9Ik01OTcuOTgsMTguOGw2LjUzLTEuOTJ2Ni40OWg1LjV2NC44OGgtNS41djEwLjgyYzAsMywwLjk0LDQuMjUsMi45NSw0LjI1YzAuOTQsMCwxLjQ4LTAuMDksMi4xNS0wLjIyJiMxMDsmIzk7JiM5OyYjOTtsMC4wOSw1LjA2Yy0wLjksMC4zNi0yLjUxLDAuNTgtNC40MywwLjU4Yy03LjE2LDAtNy4yOS02LjIyLTcuMjktOC45OVYyOC4yNGgtMy4yN3YtNC44OGgzLjI3VjE4Ljh6IiBjbGFzcz0ic3QxIi8+JiN4YTsJCTxwYXRoIGQ9Ik02MzUuMTksMzUuNjJjMCw5LjQ4LTYuMDgsMTMuMTUtMTEuNjMsMTMuMTVjLTYuNzEsMC0xMS41NC00Ljc0LTExLjU0LTEyLjg0YzAtOC4zNiw1LjA1LTEzLjEsMTEuODEtMTMuMSYjMTA7JiM5OyYjOTsmIzk7QzYzMC44MSwyMi44Miw2MzUuMTksMjguMDYsNjM1LjE5LDM1LjYyeiBNNjIzLjcsMjcuN2MtMy42NywwLTQuOTYsNC4yOS00Ljk2LDguMDljMCw0LjQzLDEuNyw4LjEsNC45Miw4LjEmIzEwOyYjOTsmIzk7JiM5O2MzLjEzLDAsNC44My0zLjcxLDQuODMtOC4xNEM2MjguNDgsMzEuODYsNjI3LjEsMjcuNyw2MjMuNywyNy43eiIgY2xhc3M9InN0MSIvPiYjeGE7CQk8cGF0aCBkPSJNNjYwLjkzLDQ4LjI3aC02LjYyVjMzLjc0YzAtMy4wNC0wLjk4LTUuNDYtMy44LTUuNDZjLTEuNzksMC00LjI1LDEuMzktNC4yNSw1LjE5djE0LjhoLTYuNjJ2LTE3LjQmIzEwOyYjOTsmIzk7JiM5O2MwLTIuOTEtMC4wOS01LjI4LTAuMTgtNy40N2g1LjcybDAuMzEsMy4zNWgwLjEzYzEuMTItMS44MywzLjU4LTMuODksNy4yLTMuODljNC41NiwwLDguMDksMy4xOCw4LjA5LDEwLjE1VjQ4LjI3eiIgY2xhc3M9InN0MSIvPiYjeGE7CQk8cGF0aCBkPSJNNjg4LjMsMzUuNjJjMCw5LjQ4LTYuMDgsMTMuMTUtMTEuNjMsMTMuMTVjLTYuNzEsMC0xMS41NC00Ljc0LTExLjU0LTEyLjg0YzAtOC4zNiw1LjA1LTEzLjEsMTEuODEtMTMuMSYjMTA7JiM5OyYjOTsmIzk7QzY4My45MiwyMi44Miw2ODguMywyOC4wNiw2ODguMywzNS42MnogTTY3Ni44MSwyNy43Yy0zLjY3LDAtNC45Niw0LjI5LTQuOTYsOC4wOWMwLDQuNDMsMS43LDguMSw0LjkyLDguMSYjMTA7JiM5OyYjOTsmIzk7YzMuMTMsMCw0LjgzLTMuNzEsNC44My04LjE0QzY4MS41OSwzMS44Niw2ODAuMjEsMjcuNyw2NzYuODEsMjcuN3oiIGNsYXNzPSJzdDEiLz4mI3hhOwkJPHBhdGggZD0iTTcyNy4yMyw0OC4yN2gtNi40OVYzNC4xOGMwLTMuNTgtMC45OC01Ljk1LTMuNjItNS45NWMtMS44MywwLTMuODksMS40My0zLjg5LDQuOTJ2MTUuMTJoLTYuNDhWMzMuNTYmIzEwOyYjOTsmIzk7JiM5O2MwLTIuOTUtMC45NC01LjMyLTMuNTMtNS4zMmMtMS44MywwLTMuOTgsMS43LTMuOTgsNS4wNXYxNC45OGgtNi40OXYtMTcuNGMwLTIuOTEtMC4wOS01LjI4LTAuMTgtNy40N2g1LjY0bDAuMzEsMy4zMWgwLjE0JiMxMDsmIzk7JiM5OyYjOTtjMS4xNi0xLjc5LDMuMzUtMy44NSw3LjA3LTMuODVjMy4wNCwwLDUuMzcsMS42MSw2LjM1LDQuMTZoMC4wOWMyLjA2LTMuMDQsNC42MS00LjE2LDcuMzgtNC4xNmM0LjM0LDAsNy42OSwzLjA5LDcuNjksMTAuMjkmIzEwOyYjOTsmIzk7JiM5O1Y0OC4yN3oiIGNsYXNzPSJzdDEiLz4mI3hhOwkJPHBhdGggZD0iTTc1Mi41OSwyMy4zNmwtNS42NCwxNy4zMWMtMi43Nyw4LjA1LTQuODgsMTIuNDMtNy42OSwxNS4yNWMtMi40MiwyLjMyLTQuOTYsMy4yMi02LjQ0LDMuNDlsLTEuNjUtNS41OSYjMTA7JiM5OyYjOTsmIzk7YzEuMDctMC4zMSwyLjMzLTEuMDMsMy40OS0xLjgzYzIuMTktMS41NywzLjMxLTQuMTEsMy4zMS00LjYxYzAtMC4yNy0wLjA5LTAuNjMtMC4yNy0xLjEybC04LjM2LTIyLjloNy4yNWwzLjY3LDEzLjAyJiMxMDsmIzk7JiM5OyYjOTtjMC40LDEuNTIsMC44NSwzLjI3LDEuMTYsNC42NWgwLjE0YzAuMjctMS4zNCwwLjY3LTMuMDksMS4wMy00LjY1bDMuMTMtMTMuMDJINzUyLjU5eiIgY2xhc3M9InN0MSIvPiYjeGE7CQk8cGF0aCBkPSJNMzQxLjkzLDcwLjA3Yy0xLjIxLTAuNjMtMy4zMS0xLjQ4LTYuMTMtMS40OGMtMy40OSwwLTUuMDUsMS44OC01LjA1LDMuOGMwLDIuNDYsMS43LDMuNTgsNS45LDUuNSYjMTA7JiM5OyYjOTsmIzk7YzUuNSwyLjQ2LDcuOTYsNS42NCw3Ljk2LDEwLjE1YzAsNS45OS00LjUyLDEwLjM4LTEyLjUyLDEwLjM4Yy0zLjQsMC02Ljg0LTAuOTQtOC40NS0xLjkybDEuMy01LjU1JiMxMDsmIzk7JiM5OyYjOTtjMS43OSwxLjA3LDQuNjUsMS45Miw3LjQyLDEuOTJjMy42NywwLDUuNTktMS43NSw1LjU5LTQuMjljMC0yLjQ2LTEuNjUtMy45NC01LjQ2LTUuNTljLTUuMTktMi4yNC04LjQxLTUuNDYtOC40MS05LjkzJiMxMDsmIzk7JiM5OyYjOTtjMC01LjY0LDQuNDMtOS45NywxMS44NS05Ljk3YzMuMjcsMCw1Ljc3LDAuNzYsNy4zOCwxLjU3TDM0MS45Myw3MC4wN3oiIGNsYXNzPSJzdDEiLz4mI3hhOwkJPHBhdGggZD0iTTM2OS41Niw5MC4zOGMwLDIuOTUsMC4xMyw1LjUsMC4yMiw3LjZoLTUuNzdsLTAuMzEtMy4zMWgtMC4xM2MtMS4wMywxLjYxLTMuMzEsMy44LTcuMTYsMy44JiMxMDsmIzk7JiM5OyYjOTtjLTQuNzQsMC03Ljk2LTMuMDktNy45Ni0xMC41NlY3My4wN2g2LjYydjEzLjg3YzAsMy43NiwxLjA3LDYuMTMsMy44LDYuMTNjMi4xNSwwLDQuMDctMS44Myw0LjA3LTQuNjVWNzMuMDdoNi42MlY5MC4zOHoiIGNsYXNzPSJzdDEiLz4mI3hhOwkJPHBhdGggZD0iTTM4MS4zLDc2LjQ3YzEuNjEtMi41NSw0LjE2LTMuOTMsNy4zOC0zLjkzYzUuNDYsMCw5LjQ4LDUuMSw5LjQ4LDEyLjc1YzAsOS4xNy01LjE5LDEzLjE5LTEwLjI0LDEzLjE5JiMxMDsmIzk7JiM5OyYjOTtjLTIuNzMsMC00LjgzLTEuMjUtNS45LTIuOTFoLTAuMDl2MTIuMzloLTYuNjJWODEuMjFjMC0zLjIyLTAuMDktNS44Ni0wLjE4LTguMTRoNS43N2wwLjMxLDMuNEgzODEuM3ogTTM4MS45Myw4Ny45MiYjMTA7JiM5OyYjOTsmIzk7YzAsMy42MiwyLjE5LDUuMzcsNC40Myw1LjM3YzMuMzYsMCw1LjEtMy4zMSw1LjEtNy43OGMwLTQuNDMtMS43LTcuNjUtNC45Ni03LjY1Yy0yLjU1LDAtNC41NiwyLjQyLTQuNTYsNS40MVY4Ny45MnoiIGNsYXNzPSJzdDEiLz4mI3hhOwkJPHBhdGggZD0iTTQwOC42NCw3Ni40N2MxLjYxLTIuNTUsNC4xNi0zLjkzLDcuMzgtMy45M2M1LjQ2LDAsOS40OCw1LjEsOS40OCwxMi43NWMwLDkuMTctNS4xOSwxMy4xOS0xMC4yNCwxMy4xOSYjMTA7JiM5OyYjOTsmIzk7Yy0yLjczLDAtNC44My0xLjI1LTUuOS0yLjkxaC0wLjA5djEyLjM5aC02LjYyVjgxLjIxYzAtMy4yMi0wLjA5LTUuODYtMC4xOC04LjE0aDUuNzdsMC4zMSwzLjRINDA4LjY0eiBNNDA5LjI3LDg3LjkyJiMxMDsmIzk7JiM5OyYjOTtjMCwzLjYyLDIuMTksNS4zNyw0LjQzLDUuMzdjMy4zNiwwLDUuMS0zLjMxLDUuMS03Ljc4YzAtNC40My0xLjctNy42NS00Ljk2LTcuNjVjLTIuNTUsMC00LjU2LDIuNDItNC41Niw1LjQxVjg3LjkyeiIgY2xhc3M9InN0MSIvPiYjeGE7CQk8cGF0aCBkPSJNNDUxLjgyLDg1LjMyYzAsOS40OC02LjA4LDEzLjE1LTExLjYzLDEzLjE1Yy02LjcxLDAtMTEuNTQtNC43NC0xMS41NC0xMi44NGMwLTguMzYsNS4wNS0xMy4xLDExLjgxLTEzLjEmIzEwOyYjOTsmIzk7JiM5O0M0NDcuNDMsNzIuNTMsNDUxLjgyLDc3Ljc3LDQ1MS44Miw4NS4zMnogTTQ0MC4zMiw3Ny40MWMtMy42NywwLTQuOTYsNC4yOS00Ljk2LDguMDljMCw0LjQzLDEuNyw4LjEsNC45Miw4LjEmIzEwOyYjOTsmIzk7JiM5O2MzLjEzLDAsNC44My0zLjcxLDQuODMtOC4xNEM0NDUuMTEsODEuNTcsNDQzLjcyLDc3LjQxLDQ0MC4zMiw3Ny40MXoiIGNsYXNzPSJzdDEiLz4mI3hhOwkJPHBhdGggZD0iTTQ2OS44Niw3OC45N2MtMC40OS0wLjA5LTEuMDMtMC4xNC0xLjctMC4xNGMtMywwLTUuMjgsMi4wMS01LjI4LDYuMjZ2MTIuODhoLTYuNjJWODAuODUmIzEwOyYjOTsmIzk7JiM5O2MwLTMuMDktMC4wOS01LjU1LTAuMTgtNy43OGg1LjY4bDAuMjcsNC4zNGgwLjE4YzEuMTYtMy4yMiwzLjg1LTQuODgsNi4xNy00Ljg4YzAuNjMsMCwxLjAzLDAuMDQsMS40OCwwLjEzVjc4Ljk3eiIgY2xhc3M9InN0MSIvPiYjeGE7CQk8cGF0aCBkPSJNNDc1LjM3LDY4LjUxbDYuNTMtMS45MnY2LjQ5aDUuNXY0Ljg4aC01LjV2MTAuODJjMCwzLDAuOTQsNC4yNSwyLjk1LDQuMjVjMC45NCwwLDEuNDgtMC4wOSwyLjE1LTAuMjImIzEwOyYjOTsmIzk7JiM5O2wwLjA5LDUuMDZjLTAuOSwwLjM2LTIuNTEsMC41OC00LjQzLDAuNThjLTcuMTYsMC03LjI5LTYuMjItNy4yOS04Ljk5Vjc3Ljk0aC0zLjI3di00Ljg4aDMuMjdWNjguNTF6IiBjbGFzcz0ic3QxIi8+JiN4YTsJCTxwYXRoIGQ9Ik01MjAuNzcsOTcuOThoLTE5LjIzVjYzLjU5aDE4LjUydjUuNTVoLTExLjl2OC4zMmgxMS4yM3Y1LjQxaC0xMS4yM3Y5LjU3aDEyLjYxVjk3Ljk4eiIgY2xhc3M9InN0MSIvPiYjeGE7CQk8cGF0aCBkPSJNNTQ2LjQzLDk3Ljk4aC02LjYyVjgzLjQ1YzAtMy4wNC0wLjk4LTUuNDYtMy44LTUuNDZjLTEuNzksMC00LjI1LDEuMzktNC4yNSw1LjE5djE0LjhoLTYuNjJ2LTE3LjQmIzEwOyYjOTsmIzk7JiM5O2MwLTIuOTEtMC4wOS01LjI4LTAuMTgtNy40N2g1LjcybDAuMzEsMy4zNWgwLjEzYzEuMTItMS44MywzLjU4LTMuODksNy4yLTMuODljNC41NiwwLDguMDksMy4xOCw4LjA5LDEwLjE1Vjk3Ljk4eiIgY2xhc3M9InN0MSIvPiYjeGE7CQk8cGF0aCBkPSJNNTczLjQ0LDczLjExYy0wLjE0LDEuNzktMC4yMiwzLjk4LTAuMjIsNy40MnYxNC4wNWMwLDQuODgtMC40NSwxMy45MS0xMi41NywxMy45MSYjMTA7JiM5OyYjOTsmIzk7Yy0yLjkxLDAtNS45LTAuNTgtNy44Ny0xLjdsMS4zLTUuMDZjMS40OCwwLjgxLDMuOCwxLjYxLDYuNDQsMS42MWMzLjcxLDAsNi4xNy0yLjEsNi4xNy02Ljg5di0xLjgzaC0wLjA5JiMxMDsmIzk7JiM5OyYjOTtjLTEuMjUsMS45Ny0zLjQ5LDMuMTgtNi4yMiwzLjE4Yy01LjksMC05LjYyLTUuMzItOS42Mi0xMi4xMmMwLTguMjMsNC43OS0xMy4xLDEwLjI5LTEzLjFjMy4xMywwLDUuMTQsMS41Miw2LjI2LDMuNDloMC4wOSYjMTA7JiM5OyYjOTsmIzk7bDAuMjctMi45NUg1NzMuNDR6IE01NjYuNTksODIuNzhjMC0zLjE4LTEuOTItNS4wMS00LjE2LTUuMDFjLTMsMC01LjAxLDMuMDQtNS4wMSw3Ljc0YzAsNC4zNCwxLjgzLDcuMjksNC45Niw3LjI5JiMxMDsmIzk7JiM5OyYjOTtjMS41MiwwLDQuMjEtMC45OCw0LjIxLTUuMTlWODIuNzh6IiBjbGFzcz0ic3QxIi8+JiN4YTsJCTxwYXRoIGQ9Ik01ODIuMTgsNjkuOGMtMi4xLDAtMy41My0xLjUyLTMuNTMtMy41M2MwLTIuMDYsMS40Ny0zLjUzLDMuNTMtMy41M2MyLjE1LDAsMy41OCwxLjQ3LDMuNTgsMy41MyYjMTA7JiM5OyYjOTsmIzk7QzU4NS43Niw2OC40Miw1ODQuMjQsNjkuOCw1ODIuMTgsNjkuOHogTTU4NS41NCw5Ny45OGgtNi42MlY3My4wN2g2LjYyVjk3Ljk4eiIgY2xhc3M9InN0MSIvPiYjeGE7CQk8cGF0aCBkPSJNNjEyLjQ2LDk3Ljk4aC02LjYyVjgzLjQ1YzAtMy4wNC0wLjk4LTUuNDYtMy44LTUuNDZjLTEuNzksMC00LjI1LDEuMzktNC4yNSw1LjE5djE0LjhoLTYuNjJ2LTE3LjQmIzEwOyYjOTsmIzk7JiM5O2MwLTIuOTEtMC4wOS01LjI4LTAuMTgtNy40N2g1LjcybDAuMzEsMy4zNWgwLjEzYzEuMTItMS44MywzLjU4LTMuODksNy4yLTMuODljNC41NiwwLDguMDksMy4xOCw4LjA5LDEwLjE1Vjk3Ljk4eiIgY2xhc3M9InN0MSIvPiYjeGE7CQk8cGF0aCBkPSJNNjM2Ljg0LDk3Yy0yLjA2LDAuODktNC45NiwxLjQzLTguMDUsMS40M2MtNy42OSwwLTEyLjA4LTQuODMtMTIuMDgtMTIuNTdjMC03LjE2LDQuMTEtMTMuMzMsMTEuNDEtMTMuMzMmIzEwOyYjOTsmIzk7JiM5O2M2LjA0LDAsOS45Nyw0LjI5LDkuOTcsMTIuMzRjMCwwLjk4LTAuMDQsMS45Mi0wLjE4LDIuNjRoLTE0Ljg5YzAuMTgsNC4yNSwzLjIyLDUuOTUsNi44LDUuOTVjMi40NiwwLDQuMzgtMC40NSw2LjA4LTEuMDMmIzEwOyYjOTsmIzk7JiM5O0w2MzYuODQsOTd6IE02MzEuOTcsODIuOTFjMC4wNC0yLjU5LTAuOTgtNS43Ny00LjI1LTUuNzdjLTMuMTgsMC00LjUyLDMuMzEtNC43LDUuNzdINjMxLjk3eiIgY2xhc3M9InN0MSIvPiYjeGE7CTwvZz4mI3hhOwk8Zz4mI3hhOwkJPHBhdGggZD0iTTg1LjM5LDU4LjM0YzAsOC4wMi0xLjQ5LDE1LjEyLTQuNDYsMjEuM2MtMi45Nyw2LjE4LTcuMiwxMC45My0xMi42OCwxNC4yNmMtNS40OCwzLjMzLTExLjcyLDUtMTguNzMsNSYjMTA7JiM5OyYjOTsmIzk7cy0xMy4yMi0xLjYxLTE4LjY0LTQuODNjLTUuNDItMy4yMi05LjY1LTcuODMtMTIuNjgtMTMuODFjLTMuMDMtNS45OS00LjYyLTEyLjg2LTQuNzctMjAuNjJ2LTQuNjNjMC04LjA2LDEuNDgtMTUuMTcsNC40NC0yMS4zMyYjMTA7JiM5OyYjOTsmIzk7YzIuOTYtNi4xNiw3LjE5LTEwLjkxLDEyLjcxLTE0LjI2YzUuNTItMy4zNSwxMS44LTUuMDMsMTguODQtNS4wM2M2Ljk3LDAsMTMuMTgsMS42NiwxOC42NCw0Ljk3YzUuNDYsMy4zMSw5LjcxLDguMDMsMTIuNzQsMTQuMTUmIzEwOyYjOTsmIzk7JiM5O3M0LjU3LDEzLjEzLDQuNiwyMS4wNFY1OC4zNHogTTY1LjIyLDU0LjljMC04LjE3LTEuMzctMTQuMzgtNC4xLTE4LjYxYy0yLjczLTQuMjQtNi42NC02LjM2LTExLjcyLTYuMzYmIzEwOyYjOTsmIzk7JiM5O2MtOS45NCwwLTE1LjIsNy40Ni0xNS43NiwyMi4zN2wtMC4wNiw2LjA0YzAsOC4wNiwxLjM0LDE0LjI2LDQuMDEsMTguNTljMi42Nyw0LjMzLDYuNjUsNi41LDExLjkyLDYuNSYjMTA7JiM5OyYjOTsmIzk7YzUuMDEsMCw4Ljg3LTIuMTMsMTEuNTgtNi4zOGMyLjcxLTQuMjYsNC4wOS0xMC4zOCw0LjEzLTE4LjM2VjU0Ljl6IiBjbGFzcz0ic3QyIi8+JiN4YTsJCTxwYXRoIGQ9Ik0xMzcuNDQsODIuNDFoLTI3LjE3bC00Ljc1LDE1LjM3SDg0LjMzbDMwLjE3LTgyLjI1aDE4LjY0bDMwLjM5LDgyLjI1aC0yMS4zTDEzNy40NCw4Mi40MXogTTExNS4wMSw2Ny4xJiMxMDsmIzk7JiM5OyYjOTtoMTcuNjhsLTguODctMjguNTNMMTE1LjAxLDY3LjF6IiBjbGFzcz0ic3QyIi8+JiN4YTsJCTxwYXRoIGQ9Ik0yMDguODksNzUuOTFjMC0yLjktMS4wMy01LjE2LTMuMDgtNi43OGMtMi4wNS0xLjYyLTUuNjYtMy4zLTEwLjgyLTUuMDNjLTUuMTYtMS43My05LjM4LTMuNDEtMTIuNjYtNS4wMyYjMTA7JiM5OyYjOTsmIzk7Yy0xMC42Ni01LjIzLTE1Ljk5LTEyLjQzLTE1Ljk5LTIxLjU4YzAtNC41NiwxLjMzLTguNTgsMy45OC0xMi4wNmMyLjY2LTMuNDgsNi40MS02LjE5LDExLjI3LTguMTQmIzEwOyYjOTsmIzk7JiM5O2M0Ljg2LTEuOTQsMTAuMzItMi45MSwxNi4zOC0yLjkxYzUuOTEsMCwxMS4yMSwxLjA1LDE1LjksMy4xNmM0LjY5LDIuMTEsOC4zMyw1LjExLDEwLjkzLDkuMDFjMi42LDMuOSwzLjksOC4zNSwzLjksMTMuMzZoLTE5Ljc3JiMxMDsmIzk7JiM5OyYjOTtjMC0zLjM1LTEuMDMtNS45NS0zLjA4LTcuNzljLTIuMDUtMS44NS00LjgzLTIuNzctOC4zMy0yLjc3Yy0zLjU0LDAtNi4zNCwwLjc4LTguMzksMi4zNGMtMi4wNSwxLjU2LTMuMDgsMy41NS0zLjA4LDUuOTYmIzEwOyYjOTsmIzk7JiM5O2MwLDIuMTEsMS4xMyw0LjAyLDMuMzksNS43M2MyLjI2LDEuNzEsNi4yMywzLjQ4LDExLjkyLDUuMzFjNS42OSwxLjgzLDEwLjM2LDMuNzksMTQuMDEsNS45YzguODksNS4xMiwxMy4zMywxMi4xOCwxMy4zMywyMS4xOCYjMTA7JiM5OyYjOTsmIzk7YzAsNy4xOS0yLjcxLDEyLjg0LTguMTMsMTYuOTVjLTUuNDIsNC4xMS0xMi44Niw2LjE2LTIyLjMxLDYuMTZjLTYuNjcsMC0xMi43LTEuMi0xOC4xMS0zLjU5Yy01LjQtMi4zOS05LjQ3LTUuNjctMTIuMi05LjgzJiMxMDsmIzk7JiM5OyYjOTtjLTIuNzMtNC4xNi00LjEtOC45NS00LjEtMTQuMzhoMTkuODhjMCw0LjQxLDEuMTQsNy42NSwzLjQyLDkuNzRjMi4yOCwyLjA5LDUuOTgsMy4xNCwxMS4xLDMuMTRjMy4yOCwwLDUuODctMC43MSw3Ljc3LTIuMTImIzEwOyYjOTsmIzk7JiM5O0MyMDcuOTQsODAuNDYsMjA4Ljg5LDc4LjQ3LDIwOC44OSw3NS45MXoiIGNsYXNzPSJzdDIiLz4mI3hhOwkJPHBhdGggZD0iTTI4OS4zLDYyLjg2aC0zMS4xOHYxOS42NmgzNi44M3YxNS4yNWgtNTYuNjZWMTUuNTJoNTYuNzd2MTUuMzFoLTM2Ljk1djE3LjM0aDMxLjE4VjYyLjg2eiIgY2xhc3M9InN0MiIvPiYjeGE7CTwvZz4mI3hhOzwvZz4mI3hhOzwvc3ZnPg==;" vertex="1" parent="-8JmMAzlH7m0WHt6DJnb-2">
          <mxGeometry x="138.22" y="14" width="243.57" height="36.47" as="geometry" />
        </mxCell>
        <mxCell id="-8JmMAzlH7m0WHt6DJnb-17" value="" style="shape=image;verticalLabelPosition=bottom;labelBackgroundColor=default;verticalAlign=top;aspect=fixed;imageAspect=0;image=data:image/svg+xml,PHN2ZyB4bWxuczp4bGluaz0iaHR0cDovL3d3dy53My5vcmcvMTk5OS94bGluayIgeG1sbnM9Imh0dHA6Ly93d3cudzMub3JnLzIwMDAvc3ZnIiB4bWw6c3BhY2U9InByZXNlcnZlIiBzdHlsZT0iZW5hYmxlLWJhY2tncm91bmQ6bmV3IDAgMCA2NDAgMTUwOyIgdmlld0JveD0iMCAwIDY0MCAxNTAiIGhlaWdodD0iMTUwcHgiIHdpZHRoPSI2NDBweCIgeT0iMHB4IiB4PSIwcHgiIGlkPSLjg6zjgqTjg6Tjg7xfMSIgdmVyc2lvbj0iMS4xIj4mI3hhOzxzdHlsZSB0eXBlPSJ0ZXh0L2NzcyI+JiN4YTsJLnN0MHtmaWxsOm5vbmU7fSYjeGE7CS5zdDF7ZmlsbDojRkZGRkZGO30mI3hhOwkuc3Qye2ZpbGw6IzAwMkI2Mjt9JiN4YTsJLnN0M3tmaWxsOnVybCgjU1ZHSURfMV8pO30mI3hhOwkuc3Q0e2ZpbGw6dXJsKCNTVkdJRF8yXyk7fSYjeGE7CS5zdDV7ZmlsbDojODA5NUIwO30mI3hhOwkuc3Q2e2ZpbGw6dXJsKCNTVkdJRF8zXyk7fSYjeGE7CS5zdDd7ZmlsbDp1cmwoI1NWR0lEXzRfKTt9JiN4YTsJLnN0OHtmaWxsOnVybCgjU1ZHSURfNV8pO30mI3hhOwkuc3Q5e2ZpbGw6dXJsKCNTVkdJRF82Xyk7fSYjeGE7CS5zdDEwe2ZpbGw6dXJsKCNTVkdJRF83Xyk7fSYjeGE7CS5zdDExe2ZpbGw6dXJsKCNTVkdJRF84Xyk7fSYjeGE7CS5zdDEye2ZpbGw6dXJsKCNTVkdJRF85Xyk7fSYjeGE7CS5zdDEze2ZpbGw6dXJsKCNTVkdJRF8xMF8pO30mI3hhOwkuc3QxNHtmaWxsOnVybCgjU1ZHSURfMTFfKTt9JiN4YTsJLnN0MTV7ZmlsbDp1cmwoI1NWR0lEXzEyXyk7fSYjeGE7PC9zdHlsZT4mI3hhOzxyZWN0IGhlaWdodD0iMTUwIiB3aWR0aD0iNjQwIiBjbGFzcz0ic3QwIi8+JiN4YTs8Zz4mI3hhOwk8Zz4mI3hhOwkJPHBhdGggZD0iTTU0Ny4xMiw0NC4yM2MtNy42MywwLTE1LjU0LDQuNTItMTkuNywxMC4zdi0xMC4zaC0xNi40M3Y3MS43MWgxNi40M1Y5Mi42NWMwLTE5LjE1LDUuMTYtMzIuMDUsMTkuNy0zMi4wNSYjMTA7JiM5OyYjOTsmIzk7VjQ0LjIzeiIgY2xhc3M9InN0MSIvPiYjeGE7CQk8cGF0aCBkPSJNNDA1LjQ0LDk5LjU3Yy0wLjE2LTAuMTktMC40LTAuNjEtMC40LTEuNDJ2LTAuMDVWNzEuMjF2LTMuNGMwLTEyLjU0LTkuODUtMjIuODEtMjIuMjQtMjMuNThoLTIxLjJ2MTYuMzgmIzEwOyYjOTsmIzk7JiM5O2wyMS4yLDAuMDhjMy4zMSwwLjY5LDUuODEsMy42Miw1LjgxLDcuMTJsLTAuMzEsMC44OUgzNzJjLTcuOCwwLTE2LjIzLDYuOC0xNi4yMywxNy44djExLjY0YzAsMTAuOTksOC40MiwxNy44LDE2LjIzLDE3LjhoMTYuODImIzEwOyYjOTsmIzk7JiM5O2MyLjczLDAsNS41Mi0wLjg1LDguMDEtMi40YzIuNDksMS41NSw1LjI5LDIuNCw4LjAxLDIuNGg2LjUyVjk5LjU3SDQwNS40NHogTTM4OC42Miw5OC4wOXYwLjA1YzAsMC44MS0wLjI0LDEuMjMtMC40LDEuNDJIMzcyLjYmIzEwOyYjOTsmIzk7JiM5O2MtMC4xNi0wLjE5LTAuNC0wLjYxLTAuNC0xLjQyVjg2LjVjMC0wLjgxLDAuMjQtMS4yMywwLjQtMS40MmgxNi4wMlY5OC4wOXoiIGNsYXNzPSJzdDEiLz4mI3hhOwkJPHBhdGggZD0iTTQ4OS4zMiwzNC4wNmgtMTYuNDN2MTAuMTdoLTcuNzR2MTYuMzhoNy43NHYzNy41NGMwLDEwLjk5LDguNDIsMTcuOCwxNi4yMywxNy44aDE0LjFWOTkuNTdoLTEzLjUmIzEwOyYjOTsmIzk7JiM5O2MtMC4xNi0wLjE5LTAuNC0wLjYxLTAuNC0xLjQyVjYwLjYxaDEzLjlWNDQuMjNoLTEzLjlWMzQuMDZ6IiBjbGFzcz0ic3QxIi8+JiN4YTsJCTxwYXRoIGQ9Ik00NDEuNTMsNjguNzFsLTguNzcsMC4wOGMtMi4yNiwwLTQuMS0xLjg0LTQuMS00LjA5czEuODQtNC4wOSw0LjEtNC4wOWgyNC42MlY0NC4yM2gtMjQuNjImIzEwOyYjOTsmIzk7JiM5O2MtMTEuMzIsMC0yMC41Myw5LjE4LTIwLjUzLDIwLjQ3czkuMjEsMjAuNDcsMjAuNTMsMjAuNDdsOC43NywwYzMuMzEsMC42OSw1LjgxLDMuNjIsNS44MSw3LjEyYzAsNC4wMS0zLjI4LDcuMjgtNy4zLDcuMjhoLTIwLjg5JiMxMDsmIzk7JiM5OyYjOTt2MTYuMzhoMjAuODljMTMuMDgsMCwyMy43My0xMC42MSwyMy43My0yMy42NkM0NjMuNzYsNzkuNzQsNDUzLjkxLDY5LjQ4LDQ0MS41Myw2OC43MXoiIGNsYXNzPSJzdDEiLz4mI3hhOwkJPHBvbHlnb24gcG9pbnRzPSIzNTQuNTksNDQuMjMgMzM0LjQzLDQ0LjIzIDMyNC4xLDYyLjM4IDMxMy43Nyw0NC4yMyAyOTMuNiw0NC4yMyAzMTQuMDEsODAuMDkgMjkzLjYsMTE1Ljk0ICYjMTA7JiM5OyYjOTsmIzk7MzEzLjc3LDExNS45NCAzMjQuMSw5Ny44IDMzNC40MywxMTUuOTQgMzU0LjU5LDExNS45NCAzMzQuMTgsODAuMDkiIGNsYXNzPSJzdDEiLz4mI3hhOwkJPHBvbHlnb24gcG9pbnRzPSIyODYuNDcsNTAuNDMgMjg2LjQ3LDM0LjA2IDIzMi44MywzNC4wNiAyMzIuODMsMTE1Ljk0IDI4Ni40NywxMTUuOTQgMjg2LjQ3LDk5LjU3IDI1Mi4wNCw5OS41NyAmIzEwOyYjOTsmIzk7JiM5OzI1Mi4wNCw4My4xOSAyODEuMjIsODMuMTkgMjgxLjIyLDY2LjgxIDI1Mi4wNCw2Ni44MSAyNTIuMDQsNTAuNDMiIGNsYXNzPSJzdDEiLz4mI3hhOwkJPHBhdGggZD0iTTU4NC4wNCw0NC4yM2MtMTkuODYsMC0zNS45NiwxNi4wNS0zNS45NiwzNS44NmMwLDE5LjgsMTYuMSwzNS44NiwzNS45NiwzNS44NiYjMTA7JiM5OyYjOTsmIzk7YzE5Ljg2LDAsMzUuOTYtMTYuMDUsMzUuOTYtMzUuODZDNjIwLDYwLjI5LDYwMy45LDQ0LjIzLDU4NC4wNCw0NC4yM3ogTTU5NC4yMiw4NC43M2w2LjI5LDE5LjMxbC0xNi40OC0xMS45NGwtMTYuNDgsMTEuOTQmIzEwOyYjOTsmIzk7JiM5O2w2LjI5LTE5LjMxbC0xNi40OC0xMS45NGgyMC4zN2w2LjI5LTE5LjMxbDYuMjksMTkuMzFoMjAuMzdMNTk0LjIyLDg0LjczeiIgY2xhc3M9InN0MSIvPiYjeGE7CTwvZz4mI3hhOwk8Zz4mI3hhOwkJPHBvbHlnb24gcG9pbnRzPSIxMTkuNTUsNjkuMjggMTE1LjEsNTUuNTkgMTEwLjY2LDY5LjI4IDk2LjI2LDY5LjI4IDEwNy45MSw3Ny43NCAxMDMuNDYsOTEuNDQgMTE1LjEsODIuOTcgJiMxMDsmIzk7JiM5OyYjOTsxMjYuNzUsOTEuNDQgMTIyLjMsNzcuNzQgMTMzLjk1LDY5LjI4IiBjbGFzcz0ic3QxIi8+JiN4YTsJCTxwYXRoIGQ9Ik0yMDIuOTEsNTQuNTJjLTAuNDMsMS43OS0wLjY2LDMuNzUtMC42Nyw1LjcyYy0xLjYyLTAuMzgtMy40NC0xLjU3LTQuOTYtMy4wOWMtMS41MS0xLjUxLTIuNy0zLjMzLTMuMDktNC45NiYjMTA7JiM5OyYjOTsmIzk7YzEuOTctMC4wMSwzLjkzLTAuMjQsNS43Mi0wLjY3bDcuMzUtNy4zNWwtMjUuOTMsMy43bC00Ni42Niw0Ni42NmMtMS4wMiwxLjAyLTIuMTIsMS45MS0zLjI0LDIuNzQmIzEwOyYjOTsmIzk7JiM5O2MtMTAuODEsNy45MS0yNi4wOSw3LjAyLTM1Ljg1LTIuNzRjLTYuOTgtNi45OC05LjQxLTE2Ljc4LTcuMzUtMjUuNzZMNzIuNzYsODQuMjZjMS43NSw4LjExLDUuNzYsMTUuNDYsMTEuNywyMS40MSYjMTA7JiM5OyYjOTsmIzk7YzguMTksOC4xOSwxOS4wOCwxMi43LDMwLjY2LDEyLjdjMTEuNTgsMCwyMi40Ny00LjUxLDMwLjY2LTEyLjdsMzkuNDItMzkuNDJjMC40My0xLjc5LDAuNjYtMy43NSwwLjY3LTUuNzImIzEwOyYjOTsmIzk7JiM5O2MxLjYyLDAuMzgsMy40NCwxLjU3LDQuOTYsMy4wOWMxLjUxLDEuNTEsMi43LDMuMzMsMy4wOSw0Ljk2Yy0xLjk3LDAuMDEtMy45MywwLjI0LTUuNzIsMC42N2wtMzkuNDIsMzkuNDImIzEwOyYjOTsmIzk7JiM5O2MtOC45OSw4Ljk5LTIwLjk0LDEzLjk0LTMzLjY1LDEzLjk0Yy0xMi43MSwwLTI0LjY2LTQuOTUtMzMuNjUtMTMuOTRjLTUuOS01LjktMTAtMTMuMDYtMTIuMTYtMjAuOTVMNTcsMTAwLjAyJiMxMDsmIzk7JiM5OyYjOTtjMy4wOCw3LjE3LDcuNTIsMTMuOSwxMy4zNiwxOS43NWMxMi42MSwxMi42MSwyOS4yNSwxOC43Nyw0NS44MSwxOC41YzE1Ljg2LTAuMjYsMzEuNjQtNi40Miw0My43Mi0xOC41bDQ2LjY2LTQ2LjY2bDMuNzEtMjUuOTQmIzEwOyYjOTsmIzk7JiM5O0wyMDIuOTEsNTQuNTJ6IE0xODUuODcsNjAuMjRjLTAuMDItMy4wNy0wLjU1LTYuMTEtMS41Ny04LjVjLTAuNTItMS4yMS0xLjE2LTIuMjYtMS45My0zLjA0YzEuMTYsMS4xNiwyLjksMi4wMyw0LjkzLDIuNjImIzEwOyYjOTsmIzk7JiM5O2MyLjAxLDAuNTgsNC4zMSwwLjg4LDYuNjIsMC44OUMxOTMuMTUsNTUuNDUsMTg5LjEyLDU5LjQ3LDE4NS44Nyw2MC4yNHogTTE5NC4yLDY4LjU3YzAuNzctMy4yNSw0Ljc5LTcuMjcsOC4wNC04LjA0JiMxMDsmIzk7JiM5OyYjOTtjMC4wMiw0LjYzLDEuMTksOS4yMywzLjUsMTEuNTRDMjAzLjQzLDY5Ljc2LDE5OC44Myw2OC41OSwxOTQuMiw2OC41N3oiIGNsYXNzPSJzdDEiLz4mI3hhOwkJPHBhdGggZD0iTTk1LjU4LDU1LjQ2YzAsMCwyLjEyLTEuOTEsMy4yNS0yLjc0YzEwLjgxLTcuOTEsMjYuMDktNy4wMiwzNS44NSwyLjc0YzYuOTgsNi45OCw5LjQxLDE2Ljc4LDcuMzUsMjUuNzYmIzEwOyYjOTsmIzk7JiM5O2wxNS40Ny0xNS40N2MtMS43NS04LjExLTUuNzYtMTUuNDYtMTEuNy0yMS40MWMtOC4xOS04LjE5LTE5LjA4LTEyLjctMzAuNjYtMTIuN2MtMTEuNTgsMC0yMi40Nyw0LjUxLTMwLjY2LDEyLjdMNDUuMDUsODMuNzYmIzEwOyYjOTsmIzk7JiM5O2MtMC40MywxLjc5LTAuNjYsMy43NS0wLjY3LDUuNzJjLTEuNjItMC4zOC0zLjQ0LTEuNTctNC45Ni0zLjA5Yy0xLjUxLTEuNTEtMi43LTMuMzMtMy4wOS00Ljk2YzEuOTctMC4wMSwzLjkzLTAuMjQsNS43Mi0wLjY3JiMxMDsmIzk7JiM5OyYjOTtsMzkuNDItMzkuNDJjOC45OS04Ljk5LDIwLjk0LTEzLjk0LDMzLjY1LTEzLjk0YzEyLjcxLDAsMjQuNjYsNC45NSwzMy42NSwxMy45NGM1LjksNS45LDEwLDEzLjA2LDEyLjE2LDIwLjk1bDEyLjMyLTEyLjMyJiMxMDsmIzk7JiM5OyYjOTtjLTMuMDgtNy4xNy03LjUyLTEzLjktMTMuMzYtMTkuNzVjLTEyLjYxLTEyLjYxLTI5LjI1LTE4Ljc3LTQ1LjgxLTE4LjVjLTE1Ljg2LDAuMjYtMzEuNjQsNi40Mi00My43MiwxOC41TDIzLjcxLDc2Ljg5TDIwLDEwMi44MyYjMTA7JiM5OyYjOTsmIzk7bDcuMzUtNy4zNWMwLjQzLTEuNzksMC42Ni0zLjc1LDAuNjctNS43MmMxLjYyLDAuMzgsMy40NCwxLjU3LDQuOTYsMy4wOWMxLjUxLDEuNTEsMi43LDMuMzMsMy4wOSw0Ljk2JiMxMDsmIzk7JiM5OyYjOTtjLTEuOTcsMC4wMS0zLjkzLDAuMjQtNS43MiwwLjY3bC03LjM1LDcuMzVsMjUuOTMtMy43QzQ4LjkzLDEwMi4xMSw5NS41OCw1NS40Niw5NS41OCw1NS40NnogTTI4LjAxLDg5LjQ3JiMxMDsmIzk7JiM5OyYjOTtjLTAuMDItNC42My0xLjE5LTkuMjMtMy41LTExLjU0YzIuMzEsMi4zMSw2LjkyLDMuNDgsMTEuNTQsMy41QzM1LjI5LDg0LjY4LDMxLjI2LDg4LjcsMjguMDEsODkuNDd6IE00Mi45Niw5OC42OSYjMTA7JiM5OyYjOTsmIzk7Yy0yLjAxLTAuNTgtNC4zMS0wLjg4LTYuNjItMC44OWMwLjc3LTMuMjUsNC43OS03LjI3LDguMDQtOC4wNGMwLjAyLDMuMDcsMC41NSw2LjExLDEuNTcsOC41YzAuNTIsMS4yMSwxLjE2LDIuMjYsMS45MywzLjA0JiMxMDsmIzk7JiM5OyYjOTtDNDYuNzMsMTAwLjE1LDQ0Ljk5LDk5LjI3LDQyLjk2LDk4LjY5eiIgY2xhc3M9InN0MSIvPiYjeGE7CTwvZz4mI3hhOzwvZz4mI3hhOzwvc3ZnPg==;" vertex="1" parent="-8JmMAzlH7m0WHt6DJnb-1">
          <mxGeometry x="236.49999999999997" y="30" width="170.67" height="40" as="geometry" />
        </mxCell>
        <mxCell id="-8JmMAzlH7m0WHt6DJnb-18" value="" style="shape=image;verticalLabelPosition=bottom;labelBackgroundColor=default;verticalAlign=top;aspect=fixed;imageAspect=0;image=data:image/svg+xml,PHN2ZyB4bWxuczp4bGluaz0iaHR0cDovL3d3dy53My5vcmcvMTk5OS94bGluayIgeG1sbnM9Imh0dHA6Ly93d3cudzMub3JnLzIwMDAvc3ZnIiB4bWw6c3BhY2U9InByZXNlcnZlIiBzdHlsZT0iZW5hYmxlLWJhY2tncm91bmQ6bmV3IDAgMCA2MjggODA7IiB2aWV3Qm94PSIwIDAgNjI4IDgwIiBoZWlnaHQ9IjgwcHgiIHdpZHRoPSI2MjhweCIgeT0iMHB4IiB4PSIwcHgiIGlkPSLjg6zjgqTjg6Tjg7xfMSIgdmVyc2lvbj0iMS4xIj4mI3hhOzxzdHlsZSB0eXBlPSJ0ZXh0L2NzcyI+JiN4YTsJLnN0MHtmaWxsOiNDQ0NDQ0M7fSYjeGE7CS5zdDF7ZmlsbDojRkZGRkZGO30mI3hhOzwvc3R5bGU+JiN4YTs8Zz4mI3hhOwk8cGF0aCBkPSJNMCwzLjE0aDE3LjI2djc1Ljc4SDBWMy4xNHoiIGNsYXNzPSJzdDEiLz4mI3hhOwk8cGF0aCBkPSJNNzQuNzQsMTguMjRINTcuMzl2NjAuNjlINDAuMTRWMTguMjRIMjIuOThWMy4xNGg1MS43N1YxOC4yNHoiIGNsYXNzPSJzdDEiLz4mI3hhOwk8cGF0aCBkPSJNMTU5LjM1LDc4LjkyaC0xNy44NGwtNC40MS0xNy42NWgtMTcuNDVsLTQuMTIsMTcuNjVIOTguMDdsMjAtNzUuNzhoMjEuODZMMTU5LjM1LDc4LjkyeiBNMTM1LjA0LDQ4LjI0JiMxMDsmIzk7JiM5O2wtMy4zMy0xNS4yYy0wLjk4LTQuNTEtMi4yNS0xMS4yNy0zLjI0LTE1Ljg4aC0wLjJjLTAuOTgsNC42MS0yLjI1LDExLjU3LTMuMTQsMTUuODhsLTMuNDMsMTUuMkgxMzUuMDR6IiBjbGFzcz0ic3QxIi8+JiN4YTsJPHBhdGggZD0iTTIxMi40Myw2MS4xOGMwLDYuNzYsMC4yOSwxMi44NCwwLjQ5LDE3Ljc1aC0xNC45bC0wLjc4LTYuODZoLTAuMjljLTIuMzUsMy41My03LjM1LDcuOTQtMTUuMzksNy45NCYjMTA7JiM5OyYjOTtjLTExLjE4LDAtMTcuNDUtNy41NS0xNy40NS0yMy40M1YyMy43M2gxNy4yNXYzMC4zOWMwLDcuNDUsMi4wNiwxMS43Nyw2Ljg2LDExLjc3YzMuNTMsMCw2Ljk2LTIuNzUsNi45Ni04LjMzVjIzLjczaDE3LjI2VjYxLjE4eiIgY2xhc3M9InN0MSIvPiYjeGE7CTxwYXRoIGQ9Ik0yMjUuMTksMTMuNjNsMTcuMDYtNC44djE0LjloMTEuNDd2MTIuNDVoLTExLjQ3djIwLjc4YzAsNi40NywyLjA2LDguODIsNi4xOCw4LjgyYzEuOTYsMCwzLjA0LTAuMSw0LjUxLTAuNDkmIzEwOyYjOTsmIzk7bDAuMSwxMy4zM2MtMi4xNiwwLjY5LTUuOTgsMS4yNy0xMC41OSwxLjI3Yy0xNi45NiwwLTE3LjI2LTE0LjUxLTE3LjI2LTIwLjc5VjM2LjE4aC02Ljc2VjIzLjczaDYuNzZWMTMuNjN6IiBjbGFzcz0ic3QxIi8+JiN4YTsJPHBhdGggZD0iTTMwOC43OSw1MC45OGMwLDIxLjQ3LTEzLjgyLDI5LjAyLTI1Ljg4LDI5LjAyYy0xNS4yOSwwLTI1Ljc4LTEwLjU5LTI1Ljc4LTI4LjMzJiMxMDsmIzk7JiM5O2MwLTE4LjUzLDExLjE4LTI5LjAyLDI2LjM3LTI5LjAyQzI5OS4yOCwyMi42NSwzMDguNzksMzQuNDEsMzA4Ljc5LDUwLjk4eiBNMjgzLjExLDM1LjJjLTYuNDcsMC04LjUzLDguNDMtOC41MywxNi4wOCYjMTA7JiM5OyYjOTtjMCw5LjIyLDIuNjUsMTYuMTgsOC41MywxNi4xOGM1LjU5LDAsOC4yNC03LjM1LDguMjQtMTYuMThDMjkxLjM0LDQzLjE0LDI4OC45OSwzNS4yLDI4My4xMSwzNS4yeiIgY2xhc3M9InN0MSIvPiYjeGE7CTxwYXRoIGQ9Ik0zOTMuNjgsNzguOTJoLTE2Ljk2VjQ4LjE0YzAtNi45Ni0xLjU3LTExLjQ3LTYuMjctMTEuNDdjLTQuMDIsMC02Ljg2LDMuNDMtNi44Niw5LjAydjMzLjI0aC0xNi45NlY0Ni43NiYjMTA7JiM5OyYjOTtjMC01LjM5LTEuMzctMTAuMS02LjE4LTEwLjFjLTIuNTUsMC02Ljk2LDIuMDYtNi45Niw5LjEydjMzLjE0aC0xNi45NlY0MS4zN2MwLTYuNTctMC4yLTEyLjQ1LTAuMzktMTcuNjVoMTQuNzFsMC43OCw2Ljg2aDAuMjkmIzEwOyYjOTsmIzk7YzIuNTUtMy40Myw3LjM1LTcuOTQsMTUuMi03Ljk0YzYuNzYsMCwxMS42NywzLjI0LDEzLjgyLDguNDNoMC4yYzIuMTYtMy4xNCw3LjE2LTguNDMsMTUuNjktOC40M2MxMC43OCwwLDE2Ljg2LDguMDQsMTYuODYsMjIuNzQmIzEwOyYjOTsmIzk7Vjc4LjkyeiIgY2xhc3M9InN0MSIvPiYjeGE7CTxwYXRoIGQ9Ik00NDcuMjIsNjUuODhjMCw0LjksMC4yLDkuNzEsMC44OCwxMy4wNGgtMTUuNDlsLTAuOTgtNS4yOWgtMC4yOWMtMy4zMyw0LjQxLTguNTMsNi4zNy0xNC4yMiw2LjM3JiMxMDsmIzk7JiM5O2MtMTAsMC0xNi41Ny03LjY1LTE2LjU3LTE2Ljk2YzAtMTQuNjEsMTMuMDQtMjAuODgsMjkuMzEtMjAuOThjMC00LjIyLTEuODYtNy4yNi04LjgyLTcuMjZjLTUuMiwwLTEwLjEsMS41Ny0xMy42MywzLjczJiMxMDsmIzk7JiM5O2wtMy4xNC0xMS4xOGMzLjUzLTEuOTYsMTAuNjktNC43MSwyMC4yLTQuNzFjMTguMjQsMCwyMi43NCwxMS41NywyMi43NCwyMy44MlY2NS44OHogTTQzMC40Niw1Mi44NGMtNy4xNiwwLTEzLjI0LDIuMDYtMTMuMjQsOC40MyYjMTA7JiM5OyYjOTtjMCw0LjUxLDIuNzQsNi40Nyw1Ljc4LDYuNDdjMy41MywwLDcuNDUtMi41NSw3LjQ1LTcuNzRWNTIuODR6IiBjbGFzcz0ic3QxIi8+JiN4YTsJPHBhdGggZD0iTTQ1OC45NywxMy42M2wxNy4wNi00Ljh2MTQuOWgxMS40N3YxMi40NWgtMTEuNDd2MjAuNzhjMCw2LjQ3LDIuMDYsOC44Miw2LjE4LDguODJjMS45NiwwLDMuMDQtMC4xLDQuNTEtMC40OSYjMTA7JiM5OyYjOTtsMC4xLDEzLjMzYy0yLjE2LDAuNjktNS45OCwxLjI3LTEwLjU5LDEuMjdjLTE2Ljk2LDAtMTcuMjYtMTQuNTEtMTcuMjYtMjAuNzlWMzYuMThoLTYuNzZWMjMuNzNoNi43NlYxMy42M3oiIGNsYXNzPSJzdDEiLz4mI3hhOwk8cGF0aCBkPSJNNTAzLjQ4LDE3LjU1Yy01LjIsMC04LjgyLTMuNzMtOC44Mi04LjczYzAtNS4yLDMuNzMtOC44Miw4LjgyLTguODJjNS4yLDAsOC44MiwzLjYzLDguODIsOC44MiYjMTA7JiM5OyYjOTtTNTA4LjQ4LDE3LjU1LDUwMy40OCwxNy41NXogTTUxMi4xMSw3OC45MmgtMTcuMjZ2LTU1LjJoMTcuMjZWNzguOTJ6IiBjbGFzcz0ic3QxIi8+JiN4YTsJPHBhdGggZD0iTTU3MC45OCw1MC45OGMwLDIxLjQ3LTEzLjgyLDI5LjAyLTI1Ljg4LDI5LjAyYy0xNS4yOSwwLTI1Ljc4LTEwLjU5LTI1Ljc4LTI4LjMzJiMxMDsmIzk7JiM5O2MwLTE4LjUzLDExLjE4LTI5LjAyLDI2LjM3LTI5LjAyQzU2MS40NywyMi42NSw1NzAuOTgsMzQuNDEsNTcwLjk4LDUwLjk4eiBNNTQ1LjI5LDM1LjJjLTYuNDcsMC04LjUzLDguNDMtOC41MywxNi4wOCYjMTA7JiM5OyYjOTtjMCw5LjIyLDIuNjUsMTYuMTgsOC41MywxNi4xOGM1LjU5LDAsOC4yNC03LjM1LDguMjQtMTYuMThDNTUzLjUzLDQzLjE0LDU1MS4xOCwzNS4yLDU0NS4yOSwzNS4yeiIgY2xhc3M9InN0MSIvPiYjeGE7CTxwYXRoIGQ9Ik02MjcuMzMsNzguOTJoLTE3LjI2VjQ2Ljg2YzAtNS43OC0xLjc2LTEwLTYuNjctMTBjLTMuNjMsMC03LjQ1LDIuNjUtNy40NSw5Ljd2MzIuMzVINTc4LjdWNDEuMzcmIzEwOyYjOTsmIzk7YzAtNi41Ny0wLjItMTIuNDUtMC4zOS0xNy42NWgxNC44bDAuODgsNi45NmgwLjI5YzIuNDUtMy43Myw3LjY1LTguMDQsMTUuMjktOC4wNGMxMS41NywwLDE3Ljc1LDguMzMsMTcuNzUsMjIuNjVWNzguOTJ6IiBjbGFzcz0ic3QxIi8+JiN4YTs8L2c+JiN4YTs8L3N2Zz4=;" vertex="1" parent="-8JmMAzlH7m0WHt6DJnb-1">
          <mxGeometry x="416.5" y="40" width="157" height="20" as="geometry" />
        </mxCell>
        <mxCell id="-8JmMAzlH7m0WHt6DJnb-19" value="&lt;span style=&quot;font-size: 18px;&quot;&gt;アクション先&lt;/span&gt;" style="swimlane;whiteSpace=wrap;html=1;startSize=60;fontSize=26;fillColor=none;fontColor=#5D5D5D;strokeColor=#999999;rounded=1;arcSize=6;" vertex="1" parent="-8JmMAzlH7m0WHt6DJnb-1">
          <mxGeometry x="580" y="120" width="210" height="200" as="geometry" />
        </mxCell>
        <mxCell id="-8JmMAzlH7m0WHt6DJnb-20" value="Conductor" style="rounded=1;whiteSpace=wrap;html=1;strokeColor=#002B62;fontColor=#5D5D5D;fontSize=14;fontStyle=1;fillColor=#FFFFFF;" vertex="1" parent="-8JmMAzlH7m0WHt6DJnb-19">
          <mxGeometry x="15" y="70" width="180" height="30" as="geometry" />
        </mxCell>
        <mxCell id="-8JmMAzlH7m0WHt6DJnb-21" value="" style="shape=image;verticalLabelPosition=bottom;labelBackgroundColor=default;verticalAlign=top;aspect=fixed;imageAspect=0;image=data:image/png,iVBORw0KGgoAAAANSUhEUgAAAZAAAAGQCAIAAAAP3aGbAAAAGXRFWHRTb2Z0d2FyZQBBZG9iZSBJbWFnZVJlYWR5ccllPAAAQK5JREFUeNrsnW9sVFea5k2aLHTU+dPrUo+xB1KmZ+WSmsWu1jii40gGA2kyGuFCjbLOLha2s1JnrTTG+wFnFLQ2K1jFzAdDmvGmPwTbAinuKK1UoZVgwl9LMc3Eo7FBzK6tbYEDg5te2epARglJeqb3uXWSSqWq7jnn3nOr6t6q51EJGSjfulV1z+8+7znved9lFT/oqqAoigqCHuJHQFEUgUVRFEVgURRFYFEURRFYFEVRBBZFUQQWRVEUgUVRFEVgURRFYFEURRFYFEVRBBZFUQQWRVEUgUVRFEVgURRFYFEURRFYFEVRBBZFUQQWRVEUgUVRFEVgURRFYFEURRFYFEVRBBZFUQQWRVEUgUVRFEVgURRFYFEURRFYFEURWBRFUQQWRVEUgUVRVJlqOT8CivKDwjWhcHWl+Pmjjz+Zmb3Nz4TAoqgiqyGyuiGyJlwdam6sw183Jv+UCORK8uvWhwtL+PPS1Fw5f3rLKn7QxWuIovIqUGljY6TZ+rPO/GhA2KWp2YmpOcALLCOwKIryQLGWaOvmKP584tFH8vQS8QvTiQvT8fPTZUIuAouiPFa4JtSza0tHrCl/nMrWaGJyLD5Z8gEjgUVRXoZ+Pe1bYamKdQKIFo+ePDsanySwKIqSoaq/u9WTKSpzzS8sHhg+VZLYIrAoyjQAHDnY5RNUZWCr89XjJRYkfqvie1FecxTlQk88+sgr//kv3n39ZTDLn6fXEWtqiKz5u2s3SmZKnsCiKJcx4Olf9BZxukpTkdpVwNZnn//hyrUbDAkpqhw10N3a3709WOeM2HDHnmNBt1oEFkU5i7MujuxriKw2PI7YfDORnGC6NDWbYor4AccXKREI6PBDvZUcvzpcHTJ/UTAr0LNaBBZF6QrUAK1cZ1eBF/EL0yJDff7OogtWIg5tbqyLbY6awKtz//HgLiASWBSlpY5Y08hBN4NFcCpxfhp/eojO3a1Nrsk1mpjsfPU4gUVRpNXXEvlQed03E2uJ9rRvdZFUEVBmEVgUpZCLKfYCp266S1sN4jQ8gUVRMu1t3zrU1+YoAOwdHC/KJBGANdT3gqMFgZnZ29GdAwH6OpiHRVGySPB//rd2/ecfOXF2x56/KVbG0/zC0i/evnTv40831K9dueJhnV+pCj0ergklvJtcI7Aoqmi00p+3QgyI8OoXb088+PyL4p42cPnLM1NWjUC9/HvxzKAwi8CiqJzDePXpN3o1nxy/MP3cT4/M3rzr7rXghv606t8+8dgjeCCihOsJffdR/Iz/coc/HGQsMbmsYpnmrBaYBV8WiFR4zmFRVKaeePSRm+8NauZb9Q6OIxJ0SqhIbRXAZEVkX9VxFxoYPgVnl/6Pdxfv3V28jz8R8eFPRy8EYL37+suab2RT52H/55QSWBSVqYsj+3S8idP5dYADnIJ3A6dyPgE8euPtiW3PrNuwfq3dK8LHzcze1icXXs7anq2RroWD1z7b5/NFQ4aEFPUNDXS3wuPoDG9YkjPvX9c5ZrgmtDGZof5na773nUdW2j3tn3730fXf3PnOIysitatsg8c/+e6f/yAs5qfgvJQvjeeMxS9ve+bf21Ey/eAb6r+PWJLAoqhgCH7krb/+qSatdDpxARM7n/1z0ErJC+jv/3H+n373e8Q9QJKGWVuFs33w+RdKbOE5vzz9gQ6zwEGfT2YRWBT1tU6/8V91yPKj/3RISSsYlr9srv/L5vX6ew/PXfk///zJZ3ggJFy+/FvK5yfnwlaBMmAWfssTZm2oX/vLM1O+DQzZ+Zmivg4GdbIuO/cfV9IqUlu1d9cWRzmcDz77IjUz5WjBMVxd+dLzzcpJNzCoc/+bShIBr+62TBJYFPW1HKWbu5DV6qZ9i/JpOhtutj2zru25pzRTN1NKh9T8guNaDgBWR6xJ/qLg7I49xzQPRWBRlHvtdbXFV1/93duVsVv8wvTAcEIeo2Go263xqYD125zwcmS1YOvkQd+lqbnewXGdT4PAoigjjRzqylOnP8tTtCo8hejpoKBV69MZeVWaEvkK6eGhzoy+3TnImXXkxFlloZtwdQgBMoFFUQZRW3UoT3f+fo3BCVpJJoB0SCEP1jL/Ze62u0PpnIn8vQghQC5kI1gCiyrNwNC8PHGGcEBlsAlXIskCN6RVTmDN31l0vVSnPB9rAl5VDAu0wqdNYFGUWWB48EVvD9ijGpYY3geGT0meYE6rnGwy2SgjmCWxSIgKlcffHXuawKIoU0Pk4Z0/XBNSzl6BVhKzs+2ZdSa0koDJDmT6zGp7rlGybti5/7gyBvfbciGBRQVP/d3bvepdqjPXLtnbHKmtcrcmmNKVb3Y5zQhONbf+2AkklUS7iDpHVRtxdrcSWBRlJg+TG5VRjyQYhHkxbKT64LMv5HHZ7M278wtLJi8BnkrgLg91BUB91deawKICKWsvsXHXZWWzP9grSZrotqZ1TrNDM3Rm8jqY9c33Fcl4Tvy8aWm9WEuD3XnqmCxfdbcmsKigyjwtSxnvHD1xzu6/4DsM1ythnbIXB5uzIjgEjIaBIT4lSdx6VFXMy1dRIYFFBTgwNEzLim1WeAeJvTJMu4exGj/9Qc7DZh/5yrUb5oGhnckCNOVJqpYP9U1USGBRAZbJfh1lPIhYyW6RDgPYXUZ7SuNnpjKCQXFKyT/X5Hj+6Q8MVwxlJuvk2aBEhQQWFfjA0N0vZs8WZShhP3lkuDIYvzCds1W9OKWcIVjSkeVgnCcmSzlN1pzPXZwEFlVGcr3rTTkI7TbciUrHrk8Y8Z1dCCbKRdiFYHcX78GXmZgsu9OGd5PvLtxIYFGUV3KXliUfhJIBbDLXDlTZzaBbCQRfhah22WHwZXGDflwSYzghza4Aoz3fEUVgUWUcGDpMywLg5CuMkgHseujCW0lwk74BW7LxGMjDQdzFhlWhx+0Oe2lqVv67OWfWCCyKciPYE0f7dRrqFNCxG8AY8O5yKUAZSXZCrCWa7vjkC6Bg1mjisjtmhWsq7Y4pn9Svr6PDoihPA0N9lCj9gt00k4vZK5AFfJGkDliJ+1lLB/IFUNEQzGmbwuT5r3L6lumwKMp75Rz2dnqyplJqr+YkUZWjs5pfWDpy8lzONcGv41mbDFh5D1QYIjDLaYcbSTaGfBqLc1gU5bEyAivpuFXsyHEaUuU0VogBR+OT8tgNtLLLcgKtLo7sk9tG6yUSl/VTtFaueNjugPJC8j4p5recVznliXxSURfjP/qTA8oBLOfOh3eWDMettRqYtU8w59nKy0XA14BZmzoPS94R7NuRE+dAakmm1TfewmOP5Dya3Ab65Ctmq3rKG/3x+ps+OZMjJ84q+yzIz3bHnmM5l/MQD770fLMSVYgotbpp2Xur7GN27n9TpxMimKXEFk4vZ8yLU/r9r3/u88uMISFVajIvo2yHGwkIYKauXLsBpwPSKWkFNzT9q379/S7CZymXQUWxmiMnzyFOdLGPx7fNUxkSUiWukYMvRncOFOCFwIhk0YVbmo25gKr+7lYXieOwP0N9bT3tW5SNEQU68YAfBOkitVUZYaxhSRwCi6I8liijfERVOMWpxBKb1aJ56f78nUWgSjnv8+Uv1oTgp3a3Nhlav3B1aORgV3/39vj56bHEpDxIvLt478z7eFwHuXDmOIeq0GOAl2FB5+KKc1iUN/LPHFYqwKl9ts8uzJGf7abOw3azPA8+/0InYxMeqiGyBs9vtip2VsoXJU3eY7I4zK17H396aWpWswY8gGWXwPX7X//ch6296LCo0pdhBwcbo1QZqV2F0Q5vhT8l5EpNbFt1/upWA1uxzVEPsSW2K09MzYFWmi1XLYdV+RhoBebCedkFngwJKaoI9krZEsadIrVVqWR3QS7wQpJxbkWOyR3LvYPjiAd72rd2mBXwBAcRDMqnsdIBZJ3w2lXp+aKa020EFkUVSAeGT2nOLjnk4KcZsRUeG9avFY3mr1y9Ifd0VnbCq8dxbiMHu1zMu88vLOLXdZoVrlzxMGwd+JhzusrFhh4Ci6LyGAx6Pt2uNDIiAcrC1rUbclbifzd1Hu6INQ31temHYDrJZeJMgEK4qkAvBRJYVJFl0sRYSN+SdO5/0/i1IjlPWOlNRMCIOPHM+9flT0ZMNzN7S7nz5qt3dFwZA4JQ25rW6axC2p2Y8nfzMS1IYFF+FDyF4RE0VyHhRHQmocEjF0HZg8+sJUKleQlXV770fLNydw6eUPtsH5glJ0V054DyHenvy8kObNPdmfwXC5PaJhcz3anS0fzCorIzqI4k1ZPvLt3XPIiVC7Zri7wcTXJx4E2JbYG3ktNK7BYCsPRjQDuHpSxy7wcRWFTpqPPV45oxi7yUimRrtKO5fECk7bmntj2zTh5n7dhzzM4tyiNBMLGj9WlHiaCSdmGuS+4QWBTlWPEL0/qDSs61cHXIvgaL4/6ACNZggiQOyNoAmLVKAJDJZ9ljLVE8nE6uS4DbULfG9SdGYFGUA1mx1asOEq9mZm/Jn2A3w4UB76I2MUwQwkOJFUIkm0GE3sG3JMatI+Zyl49dEpayzcRVvfRUAoui1Moe8HIpvZhkGstd4qVFGfvwDSd/9MS59NOzO0NxHHdtXPEq9hNYdapPbJbAoigPlDOk0jBZMssg6WI/e/O37s5Tziy8hRRzj9q8HfkRXNsrqHVz1OTjIrAoSlfuduHILUO4OmQXImHYu57QEcTJOUGW6mY6v2DbfNCEVtCVq7YF4OXFufyQgUVgUSUSDLrbhTOhigp322/6M7EbyaXDxpyT5Ylky3i7xvFgigmt5heW7KCDI8uTsHwSDxJYVLAFMzIwnHAdSMqfIIkKr1y74a4toBC4k9PRiFPKSdIN69ca1tKSvF9lPDjhj5wGAosKeDD4qvuSDKkQTBIV2gVKoqqnyZlHaquyG8eL+lbZZAHg5MlcOvbKzofCW8njQeUHRWBRlFpHTpw1zGZMqMZhj30ZdZ1OE3JtbKzLDsRwzOzDxloaDD8ruzAT6og1yeNB/9CKwKKCKoxq8104kmGcYkq4JmQ/kmdMXn3lioezo84DWREuzsGwqLGcrT3tWxRYP09gUZRxMGi+boUjjCYUVRD6u7fbxll3Fg0X+8PVlfLNhqJwjclL3F28J4leYa+UPWXpsCjKSLAMXo2iMVXZlg5p54gzk9cN6+FlTE5lENDRrmY7G2i3PgAaSnD81edz2VdfPYFFBS8Y9LD8Mdgnb9EODfW9YPdfYIGECDrK2BOTbhuV22U0aDUt4ene9q3KMvNKB0pgUZRMnpc/Vs6FweZI1tFABEO7Z7ctxkXFrnQhEpRErOGakHL2CrTKR6VpAosqF+Wj/PFofFJpskYOdUmW0mZv3jVhVk4nZWivrPKB71+XvaODXcqKfZ4UFyOwqPKVefljdyMTYxvMkgPChFkNkTVZ/2JEK/nJIBhU2jcf2isCiwqSNMsf58lkISrsiDUpMeFuPitcXZnhd1wDS0krHFk51+5Pe0VgUYGRV+WP7dT7mronzVBfm5wjgMVo4rI7ZqXnN1SFHnfX0xSoktPKsooHX1Qe3J/2isCiAiNJ33lPpFOwFOP83ddflo/2u4v3jpw856IwaToKXdgrfDhvvD2hdKAIbJUHx6F08E1gUVQxpZMtEa4OKXtzwWEhxjzz/nVHVguuKpVy5bQ+35VrN0ArZUYYaCXfNpgKBn1STIbAoij7qPOOVtQJhwJm6UAEVsvRpJvgFLClvxcHVg6o0oHjQHdrR2uT8oDuqiESWBRVBA0MJ3QQA2YpY8OKL9NKp4+c0MWW2Leoaa+AqtHEZVg5nVT7ve1bdSbavU3KzYfYSJWivqEdPcem3+lXwgixVXhk36bOw8roSZRngXMB5vCQHFkYK7m9AgRnb96FfdPfEoRIUMdbVSR3aPpzrp3AoijbwBDjFgZKMzYE4HQGObAlWkuAR5HaKpipbCcl/iUnsIAnUdPKUQsMwHHolTZNWo0mJn21z5nAoigtJeO4s3vti2GlMwt2bMeeY/qVuYAeyxwlnw9sPfHot4EV6/HYIym0gU1wUnia9efSffGD03eBg7979GXNBUcErSbVEAumZRU/6OIFSpnrj9dlOejL1r0YuHcEk6WzpiZ0YPiU62LN+RDOXL6d6BumcmEx+pMDvl0ZTBcn3Skqt+A49Nf4+ru3T78zYFhcwROJZDGdNYGUoYNDDAStCCyKko3kTZ2H9ZmVDA8HBrpb3SWpe6KOWNPN9wb1jaHT90hgUVTpMEtYLSBDvuswH9rYWAdc6tRgCC6tKjiHRXml0pvDSg+yLo7scxruic2P8fPT+Y624Kd6NKovlACtCCyKwMojswQXRuOTY4lJz9EQrgklUbVFWTW0ZGhFYFEElgPpZ2DmNFxwW+bkEpzaLa00LxdOQCfflcCiCKzAa2/71qG+NpMjiAzSq1bD1FlJf9N0c5dMkV9TH1lttR1z7qfSNZqY7H1tPKC0IrAoAsuxQA1YLUNwZJiv+TtLdqjy6lVEJ0c/b2wmsCgCKy8SFZP1sweKLiuRff+bQZy0yhDTGijKjVvZsedYUPItYayiOwdKgFYEFkW5V/zCdO2zfX4Osi5NzdX+uM9Xe4YILIoqptXqHRwHFPzWcBSo2tR5GA+fl4txKs5hUd6orOawcipcE+rv3u4678FDVB0YTuhXjyCwKAKrHIGVwlbPri0dsabC7yiEyxuLT5YqqggsisDKo8Cs1pZoAVYSZ2ZvjyUmR+OTwc2uIrAoAssXgs+KbY6CXBsb67z1XHBSiWQXwhKbpSKwKALLF2qwUtUj9ZHV4eqQ073KwknNLyyKFPnSjvskYolkiiqQQJz0ZChR1j2Zzr7G7leSSfCLiPVKI4uKwKKooAokEtGc/1s/+EfMw6IoisCiKIoisCiKIrAoiqIILIqiKAKLoqhyU9mlNVhFZq38l9CTNZWiaGRDZHURG8k5ldiFzwuXIrBKU2JvRH2dlWTsh8a8FEURWJkCm2ItP2xtiRJSFEVg+ddPdcSaTJogUVQBrlLRCAc/1H9zRmJjY11GT4qJ5LZBzRY7BFZghG96d6yp6OXTKEpi+UWrLvmcabg6lN6SR2yT7q/YLv56aWoOCJuZvVWeG3pKAVj4Rvu7W11sf6eofDup2OZoc2NdrCXq1cIOrvPUpQ5mAV5lVWEm2MAiqig/+30POZVTsWSBwKG+NjArcWF6ND5Z8h9sUIHlk/rZFJVtqXBlethm1RG5jp44N5qYLGHDFUhg7W3fimsiQMlTVDmgCpdlT/uWIl6WeGmMCzzArAPDp0oSWwEDFozVyMEuxoCUr9QRa4K78c8dFJEHHqIxfYkVel9enpeFKOE4v7D4YXL9+NLUrH/eJtc6AyTcO4f6XvBnDg2sFhxf7+B4Kc1tBQNYgNTQK22Gw3gmWQzbWhKeu+1nt7yxMUIQBOKaBBEQBvr8JBGR7G5t6tx/vDQixOWBuDIujuxzfRMTCyjx89Pl0ASJKpixGjnUVeCZdZOznX6nX0SIBFZ+BU6BVi7CQIR7Y/HLpb1iQhVFA92t8FaeHAquPzk7cevex59+9S+30ntSNCena80nba0Ypa8NR+t89Xig79y+BpY7WgFVuJmUQ04KVXiz/+7rL5vgA7BIparbterKmcIutvI0J7NGXTu7WEu04Vf9O/YcC24PHv8CC18MLg5HtCKqqLzePkcOvuhuagJXZvz89Fhi0jUpRIswcW2Ha0JAj7sNs4AdTAB8VkB39iz37cXhiFa4cZVGiE6V2NQEuDAWn/SWDvN3FnGp44Gz6mnf6jSfXvjEzv3Hg3hrX14CFweuhqBH5lTp0aoA2ZvwXLjye13lrI4ctFq+B45ZywN9cQBSJZZmQpUArXAHxWVZsNUejIKB4QQMl1NsBZFZ/qrpLsyq5ieO28umzsOkFeUfWs0vLOKa3LHnWOHXpgW2ojsPOAo/wayOWJCylP0FLFwcmisg8Nu4MoK72EGVHq0QANY+22e39lcYAZTAJR76MyTBYpaPgDXU16a56gFacdKK8o/ZF8YKBscnJw+T5QidYFZQKvT6ZQ4r1hLV3OUQ0NUNKlgCrTTNPrjgyNEIrVzxcLi6sir0OB7iZ/HvA8On4HfEX+8u3nvw+R9gmnDw+TtLjl4CTwZDYQI0hxW8JMJJ/2dZ+wJY1o6nQ12kFeUfs6+ZHSrMvqNLHV4mUlsFTmX/74PPvrBYc/+TiiSwxHNSLAODZm/exUMfK72D41fnbovJdbWjPPpydOcAgaV1N9Px3qQV5Suzf2D4lH4YCE5tWL82J6dSurt0X4DJjik4Ah6i1siVazcE4BRIjVu703SGGM4QpAbjCCzF9aFzN8OtjLSigmj2LcrUr9W5JQvrNL+wpDxJDBkcFm7rzOR1JbZE812dBQSQOnFhurjrBnI9FIjrQ6SGcjhR+RauRh2yaGb/IfTb275l2zPrtCfvl1LYUmrliofhifbu2qJzvxc5QB5+AmUKLJ1KxyKdl2OJKoDZx0PH7Cs3gYEmbc89hYezzbBfoUppstJfCMB66flmebD55Tjarx5H4eqQV7UoSi0kDNeElJMFCNc7979Z4AyGhm/2tsy4B7JeTbFoktf9uqJIpCdmHxd227ZGoMTRCSC++/rnG79NzbXrCLQCsxDKyaM5uEJRZ0YZGJrs0y5ZYOmA/MDwqQJ8cGL7e3NjHVCls5gtevPOzN66OncblwgRVphgbSaf6+4YpcqvHt+7klYb1q9FDOjiBGZv/jYdXi4OAqsFcgGpklkteMP6yGpl8d6hvhc0Q8hyARYYofzUwIK8FmAQTZl6dm11mjUnevOm5g5wHeNUE+eny7MZb2Ekqv3maRTh4D3tW5RPU+ZbWQWn3GZgpjssK/FqYcmRyRKK1FZ1tD49mrgsYVbva+PKolqiXasPZ9+LNoelY690Qm7XGuhuvfneoCc5vvjuAd93X3/597/+OYwAm/rkSfhg87SJRGcutXdwXG72TWiFI2cgBv7d3aFgssAsSUAKGoK8OpbWh9dAcYClY6/yV5oDV9X0OwP56GyIA+J9XRzZR2blSfnopmV9azFTs29CKwtPc7eVCPOQWTg4xpfyNqyzBFEWwOrZpbDfuAnkKRjEpQlaBWXnFJUNF52pcUfa275Vw169Jfnfbc+sM7mi7FZyrly74fqYglmSJ2B8zS8oDEGP/3oCFQdYyhsa7Hc+VgbhcnW2KVB+FjystwZWOXuFsS0JBkUKu8kJ2E0VaeayS5glsUhWLbnXxpUxuN9ihSIAC7SS39AA/nwkteNGygalpSEPkxuVV6Oovi2BwramdSYnkGGv0p0aaGVisiq+bF1ha/3iGkntu31WeaYIwGpVBcZHT5zz/EWTHXrdhBLK3Baq8ApXh7zqYLpbdQ/D1Sgx+7GWBqf5Vhk68/71jJg3w2QZhhrgqYTIB1R7IXGP91Xie6HTGqxMAimw8PXkw17pL3mIxqszs7eyowCx1T7VbcnPOxhKXv3d2+MX/sEwRy9cE5KHPPK5VJH3ZHIC4NHdxXsZp1SRdoOEyQLR2p57yvVLgKexzVG7MSXux/IPQfLrpe+w8OaVvPB89ipZYEidDopvrvbHfTv2HMPXk3MkiKZyuILxnO/+6Gf4k4lXRdRQ3wumV2OL+6tR1E4weXVxOSkdnygpY2ZIKyO1VXb/O5aYNAyJShlYGvGg94uDPbvU4YOouewokQJXM5gFxo0mWEaiCIIvMAwMd2vk1khe3TAYHD89lT2nHq6pzJ51Mr+LS/Lmrfoz0uVCp23ESgpYcvOJD87zjTjw2MolZ9zoXO+vBuPwu9GdA5zqKkpgaMVQ+bkwcCna3cDE5IDJmSPQywgGxSkhFEhvVZ8KDEE3w6kY2ez7+WnDwKg0gSXZVKz5wbl50Tr1hWVu60T5Dp8XPys96WzldXfvtK6Kk2dd/67yasm5/CcO25zr4KCb4fyD5JyPnlQsczX7JrmhoMDa2BiRP2EsD7FV9v0qp8Py5LWOnDgLq2Xl6GuXB6EMpVkTxsUgtLsqEAlKpoSUkqBHhKh2IZgd5vThbudGYSTlkc3G8gRWs2pFplgVLcI1lV4dCm9hYDjB+g2F1NArbvbryAehJB4ErVzPXoFWo4nLdiGqOCWxJ98ukDQZI5Jo49LUrGyAVIdch97BDgkLYHPy5MIo38pFzTnLbkgXjhP28VekdpUJreyS19PfguTtxK2cm9uuB6AdahOqeFNnaqXUgCW/RCaKB6x8bISmCqm97VsdhS0a6zCz3saDszfvSmiVUQ5AnhkLZmWkmzoZg5Xu7IJPbuqFA5byenJdT8MTkjrq8Uv5MTB0kpalnE61G8DuaHXl2o3x0x9INgZmb3GV30RxQHmhPhf2UM4sn8y7Fw5Yyhg4TyGhPDhPv+XefG9woLuV2Aqo8A3i69N88uOPflt677SNuZymticzEj6QGyKcdvbtXLSelp8kLFt2boRqGFa6cww+GRcFBJY0HlRWunAt/YAfXwlua7//9c9xoTgNMSg/qKd9i+bcsDzAkVyNjoCFMPDIyXPyPPWOWJPdjBWuQPmWMtDqjbcnHN3pcZHbTWN9KF3a9klFpsLtJZTf0+bv5CsPQCw+Ovq401fK8bszc7cmpuZy7i6kfCX9Mspyv3DV/ovWLFuMqw6uSrmlBrSS1zsSE1vyrGYAS9SA1zw3MDfnAqhyTgYfWoHbwRQTWK7vaeY6evKs6zJYokCHuG4E+wAv8223roW77h+vvxk4lBTsnEUZZeVmXfkNTLJ/UCcGvHLtho7rUdJKn1nW+mN8MlJbpdMD8Qkb66BMHkTwUUYOS64P7+Qx0xLfpbWHo9o0kUR03MUDR8M1bdV1YOMJ/2mory1+3mjznZ3XeOIxReUsYXaUc+Gif7B+viuY1VC3pnP/m/LbpNgmDWxtqP++xG3ZtrALQvLgQ2VyEXveilWUbxeNJzhV77fA0PMyynJLJea/j5w4p1OIfW/71pvvDTrNzheNCHRK2lv5E/FJnIx5LS0fanmZXMS49R0YPpWPlrZiqr6nfQuOn9emZJS+cC8Zi096vu5cVflYegCFQAx00DQmItMK14nJvQ2ww2M0MXlUWrW54qtJNDyqQo9b5WXWrsLJi+n2jJJbBJZPNTCceLKmMk9VksUu3PrI6t7XxkvvthZEIeaK/uSAt9/F3aX7yUovnyohlVpiboiswVWh7APoFMd4iAj06uztVOJOzmYWoCoeYhMi4PXEo982rIrDkLCggWHn/uP5A4ro8cXwkAqo/H+vXV5uX8loMlIYOZivdqcNkdW4t+s0qqTyfXPyfPghqkpVwpOHhKloNPWDJyHhl9ewRkj49TlnhYQ4c7vf9f+9dnkZXsq4wjZ1Hgawetq35qNVJI65t30r57OKeVtKTOZj4wRCwtTPoAAeG9avffDZF8DWzNxteZyI/x0YTuCBa8P13lVcVAeGT+mA2KrgXL82UluV/UKBLiWyvGyvaVF+H/c98KW1Jeqt4cIVCSvHyaxixTXKjnseCrZFJOtppjUAOrg2HKU1VCQTmJVpDULKtIZAyy/AerKmOJ8v7ja4gIQbArNERxxcfIZTpKL7OU1WUWTehReXQU6D9tH9T+RfOhikkziK09ux55hm4qgwjDp5OZqJo3Yfjk8qXvkFWDOztyQuxsM1FEPPJShjFfyuW53ilwsDv7s1L8DCGepsPSm85Lnsy9a9mNfjp38+Oj2p5Lu17L5uHQ7CcCXvfKuVW3PEeSqZpUMrq5+r9tacjz7+1GYMKn79uz/6WRltzbln8zF9RXd/OVg4LzxSWewicgSD9Pck+mSzaLkFg537j2s+U/K/9fbf3fzCkg4XgLy2554CsORFYJTM0qGV04bydgUelBWv/DDFUbi0BvluQT84LGXkGN05UPvjPv3ZXNZ7KLCOnjinOaMs3+gruRodlXNBjLZ31xZ5CS0wy66ZmLKZE4zVS883O7rMAB07gD4pBbFPdv4/VMgxXwLDW6wwshGhDyWq6Xvi9yXu2Gn9KUSIsFqStoAVyZTm7LugmOeSn2RH69NO63NJyqLIHZZPVpAKB6yg1GDVEe57eS0vQblQ7+BbTq7GWXe3T3dNmDesXwtsSVLMsyNZefoCDhhribrIWZ+9+Vt3jmHCH7t5CprpLh/kzYEKoMbil8kI/wgBu6PEK2WAY1dDWWRduThDBIYwRHaIgXNPt+0YKZIVG6BKbtmkY3DJXXxTxArmRQNWUXqfDXS3GjY09/P3R4nhLekpbxfgyG+frfZJUhKTIhfCNwmz0t+C5O2AVq7XcyTFJFpVSWEzc2U2h6V0lebtv3Oqv3v7UF/b9DsD3qaZyEsj+SrsL/1g0NWGc7kjs3LxbC4YnYpXcmbZmSxxSlapNZsW6DBWJmNEAh15Vw7A3Sf58QUFlnLiYHd+SilUfFlOqN9Dq6UTwLKkcgEUv+CyhqJyUsbO8ruOClPMsstxF53PkwUhPsl5DW9Yv9b161qm0gY6VtahX3uGFjkklN8J7RreeuOJkhVgYLXMY0+RlqUcSKRJvmXtwhl0uQtHOQh7dm3N0wC2Q484bE6SSjBn/n57dm0xhHtpAkv5TYerQ/nOt8TxL47sw6Mj5tLNWf2Xjr6szH1PEFj514HhU65DFfyi3AJLokJR3d/kzBHcZWckWOnKC4vZ06PJ3IhGQ7JLTlhpFOxC1NIHlnIY9+Rhgjyn2x852HXzvUF4LkeIBObwW8pfwWWns0GEMrz5GW5+GlPl00lK1OLVXc9kCYFB2RPw83dy1H6BtzIs/CJpjIhLWp62bReilgWwlKg2/24cRHbJhuAIEsGgkUNd+OZyRoui9wTQZj3tYJfO6TldtKJcyFHilbuwXXI1YgyLMp4mcxTZ11s2QyO1Ve7aTafdPpckk27KiWNfxQqFrtYgms1IovGi1DkAuTpaQ+nVk5PLIkvhmkoXe4bwBmmvChAMmq9piKhQvgsatzS7BHqYLKDEaa55ujasX4sTSM+ez4hwYcFcp1wJwQZKXILOPkT/xIMVRSmRrBEVbin65wJOuavDbdUt8rpDD5UdcXt1Szt68qzyapR46viFGcPAMINHGcEXiGYaDE5elwR0/d2t8l8fTfirrFsRgKWsbGf5nVhTEAcSaLWp8zDTr/ItD8sfK69G0RXJ7n9hjkAEs1tjZfrUfrpthL0yyWMQR5PNtWvUrRzzWaxQnCYUyohJp/+a3yQqVZFWeb94vC5/fPTEOfkTEBVKwkYQwXAyy44aoJVJhxvAVDJJp9O9UVSII7DgwxWXiJg78OS1EDvkGyIiG4i0KoDyUf5Y5woZ6ntBFna9f91kQi3DZKUDy4RWo4nLcgorZzyO+q9kbnGAlbHV0ya63u7JZhqg5Ls/+lnn/uN5yuTEG4nuPMBqyIWRefnjnBBUWn6YIPkdFFeXCbMa6jIdHDyda3slaCWZXMPBlU2F5xcWfZj8XLS+hDoL/5oVrzWD0B17jglyATHmxWHEhtvaH/dZpWbusNRMgYLuPC2/6rSiUabsmTArG0+uqy0paWVlPr/+svI4/lw7KloTCmGy5H2YxW3NQ/Mi7qXiood9w/Hrk4XbNau2J7OQb09Ygf0s9wkWPhjULH/s7uBHT5xTmg6Mc3k3aTALvHCXiBCprUpdVLga3bW9URZltsj7SpsyGPTh7FWRgSVua8rG8biG8kQHi5jfdEZAmN1VYr4VgzJUvp0s7ou7Y0/LRzL+V9kl98q1G3eX7rdta3Qa0EVqV6WuMXeZojqUgQPo0CgxYJ6UW4LAEoXS5VMDuNWMHHyxMPPZovEE0eBP5Xs+RUznK2OlWEsUzJKHS9aFffIcnumIO+lPjqxd5TQMjF+YUZZv7og1IbDVYbdvb88PFffldeYORPN3jliqAEzUwSIcinIJG0HZ+OkP8HB0o02tMunHg3ghuKo33p5Q0soaRxqTwi6qIZYRsKyJCY25PXFb44iiChB46iAGPkUnt3n25t0jJ86def+6JrYEpzQXx4Eq+CBYOZ3JJlGkxMNPoEyBJW5rOp84bmsBTX+nAiTNO2hFcgl7QLWvRejKtRvAlpiP13FYSnuFk7QqVZw8p5xfF9rYWAda6SwrOS2NX3j5olX9jj3Hbr43qPxAhaHlvmIq33dQ5dSqUH/39idrKjUBJ3bJiDrgdlumqyofq5D2nYZlw8PRTCtu85rpQTg919UQywtY4ramkxtCZlEFEMZtQ2SNTmVaGP9wdQh3XM0wSpgjPFaueBhOCtjCQ/xckdw8WJHWLgCO7MHnfwCektWNl1xEaghdNXeMWG0Qe475/6tZ7pPz0L+tgVnNjXWsiEDl2/VP/6pfp1wHuIZn4oJ0FEyJwvA5y1R5cj8W2aH61cA3dR4OxBL5Q/45FdzWNBdTcVsbOdQVuN3RVIAkGi9rT5aHLo7s05zSKoBiLdGb7w3q06pz//GgpBk+5KuzsTCvt2kGzMIlku8C8FQ5y2mxoP7u7Y4wkQ+Fa0IwVnjo386tzWrBmWPxF7Ac3dbESi2XDin/MEtYLfDC2yaYmjEgLN70O/2OmusEi1a+A5bTSySZB9/l6H5CUXll1pcR2d9aXQIKgy2BKpg7WDxHAyFwtPIjsFxcIiJi31uQdjsUmaWpjtYmYAt3U8N+gvIgA1h0gaqA0sqnwHJxiYgmqfjmGCFS+bsgXcxMg1ZglouGcrLAs+bLbk94AItOUSUmXgKaG7Ss4gf+3fIiZqmcfh9iM1Rwc7Vg7+Xt8DByfHjaf7z+puw6W/diCWDLaa5ATljgG5yYmpuZveUoDQJjoSGypjnZ5MZFb5T00QFaBbf0iK+B5ZpZ4osZi1+2avUFrQADgRXoL8ipcUtWLrp17+NPU9dtOo+ak3D0auUxfmHa51sFAw8scVszyWDAl5S4MB0/Px2U74nA8r+szuGHukycToGFix9hRwkU8n4oEJ81hqiyBrxkEmHkYNfvf/1zBPxDfW34a+GXnKkSE24b0Z8EppC/dbal0nZgeSDOUmw2RORv0v4rOQuwWiwmigqisN8f3llKfqOz/nmzT9ZUkgiBuCZ7B8dh3of6XvBtArM4yVLaexuAkDBdMEewS8VNJi763ZIhod8kKnn6LRlQxIAl1nruoWCd7vydRQzXfPR6oijXgoWpfbZPp3xugc4nMVn7476B4UTpDZOHgnjSuG8gJnc9q0VR+Qi+AAhgq3P/cfMmcq7PoeRbzwUsJMwQYsP+7tayihAZEgblytwda4q1RAsTJ4ql8HKoE7c86KP3UufhMsQWFYArc2qu99FHYpujzY11eSIXODUxNYc/y6fbU7AdVvY9TafnGh0WHVbh1RBZHWv5YX1kNS5UE3ilEuV92EeeDsv5Pe218Y5Y0+7WJpbKonwlUdNd/CwquzdE1uCHJ2sq0xNQ8e/p1ZDxw9Xkb12amp1fWGLfzNJxWNk3tI2NkdIjFx0WVc5aXqpvTNzQjpw4+0RyHqG+zuIXbRdFEVi+Fkx1+uqJmEGAG09ZcVCM9f8oisDyaUhVkVxe4XdPUYHTQ/wIKIoisCiKoggsiqIILIqiKAKLoiiKwKIoqsy0nB8BRRVF4ZpQuLpSZAXaPWd+YXH+zqIokMtPjMCiqMJJbBerj6wOV4dcFBcRRb2vzt6+NDXrqEVYKalk9xJSBRb3EuaU2BnW2hI1LNKQLTDLagdVTrVlCCyKwMqXOmJN4FT++tSnO6+xxORofLIc6oYTWBSB5aXCNaGeXVtAq8JvUB1NTI7FJ0s7WiSwKALLM1T1d28veglJAOvAcKJUsUVgUQRWiaCqHLBFYFEElnsh7gOqRHdeHwrAsrr4lNCsPBNHKcqlYi3Rm+8N+pZWFcnqbzf/dnCgu5XAoqjyFYzVu6+/jEcgSj/CA06/M1Aa5XaZOEpRjm3LyKGu9M4Rhkqmsy/lxKJXlMFxLo7sE83rCSyKKhchABzqazM5wkcff3Jpak4krOs0wkm12BEtwlyDEsfBmeMgva+NBzdji5PulDcqh0l3GCvXS4GwUfHz02OJScNdgeGaUKwlatIOCiewqfNwQJlFYFEElpY9QUjlghGiB4o5p+zI1dO+xYXnwlmBWUHcUE1gUQRWXmgFS3Vg+BRcVb69TBJbW53upg4oswgsisDymFZgQe/geHpzuQIIwBrqe8HpeQaOWUxroCgvaQVXVftsX4FpVZHMEY3uHOjcf1zf0LmOcwksigo8rWBVgIyB4UQR57MBSuBSv+1m4JhFYFFUbo0c6tIfyTBWoJUfwivgcseeY3hoclMkwQal+TnnsChvVGJzWEN9bZp7bgQg3G0zDteEnnj024CF9XjsEWGRtj2zrir0+IPPvri7eM/6c+m++MHFwd89+rImc4U99P/3wsRRispUrCWqSSuM8x09xxztLgaMIrVVoqC7neUR/4Wnpf4RzBJZprM372q+EJ68qfPw0CttOrlj4BocZeerxwksigqSgBIMXU1a6WdgfpWwvloSfAFJgk3pqEphDo8N69fCaoFZV67dwNN03J9gkA6z8JzE+Wn9+S8Ci6KKL4RROhM6GNhggQ6tcLSNjXU6oZlgkJxEK1c8LMAHuiEO1TF3OM+rs7d1dhSB1DM7D/i5HA0n3Snqaw10t+qQxYoENWa1AZdkdLlFcyJJkEL4LLUTrK7saH26I9YE56V88pETZw8Mn9Jh68hBX09qE1gU9XUw2N+9XTMSVD4N4dveXVscZQwIVInpdt1zrq586fnmbc+sAxwVLB5OjCbU2WEwg36u8EVgUdRXAZGGuZhfWFTOW4EdMD46EMmIB1NLgZomKx2OwJbSaiE21JmiArV9m+VAYFHB0M33BvM6imLJ1oHy54gMBjmtQA0YK7sVQLlxy/mzpvDhgFlKQwdmKQ9uFaJ5pc2flwGBRQUkXqvWitdcS2eI9g6Oy0c7eAFqODJWKaXnK8BtuUuXj6k6IVrrhvvfVB68o7UJATKBRVHutbd9a542kSCCUxZpQTAl3yGIc3PdNhUxYAZEXCfNK08DR9aZgM/r7YHAospCIwfzkjGvHJyphKZ80CoJkVuSCNFzZh05cVaZmu9Pk0VgUUEShqLna1g69kqechWprTKhFY6cjaec/+jog9r2zDrZO9Ko6+BDk0VgUQETRpG3d37lsIQZkSyuVYUeN6GVOL6jf9fUhvVrJRH0/J3FoyfOBc5kEVhUwORtcqNOW4fewbfs/iuZGtrgbpY9p5NKXwk1NFkVyTl4Sa4DAsP5hUUlswgsijKljKGpSWl3TDEgR6Xl2Lc1rdNJNJfozPvXM0K5DJPlok7DN5lly1MAUTn7vjv2NIFFUaYaOdRlnpaFIygdhGRII1wyXLWcX1iSV18AU65cu2HyEmLLtC2O45NykwX76dW9gcCiyjowNJ8Sjm1WDEX57mKYF5NXh3WKn8+cGuvPaiuPc9DfqWNnSCVwV85ktW4msCjKWHudt4rJHIoq73DUvk+ynAI6Aomy1+lEMb+Mf4xfmMkfmmGy5MuFdFgU5VlgaDSMpUPRan1qszi4csXDkjhLR6KmVTatGpLtnTP+HQ4rY6rLqcLVlXbrfaCVfIMhzso/zCKwqAArXB0ayIqhPKGV5WvO2w5j0MpkZRAAyskIgarmXLYRdDNcMZS40cR5xY7oZjMnS2BR1JdynZalHIRj9sVYTObaH3z2xfjpqZxrf2K2yC58A+NMJrNgsuxiWBxZHhVubIwQWBTlUWDoKi1LPggRD9o5mkhtlevZK3BqNHE5Jx1SkRdso50bwu+aMGtDvW0YK48K5ZWdCSyKchbsuNivI3dJkngwUrvKhFZ2xMFbSEGh3ybOlR9BqexS8fpRoU96FxJYVIkEho4sgHJ5ccJ+W4xk2LumFU6+p31L+unZnaE4jtMKf6lXsUtzVW4D8klUSGBRpSBrv46TFcOGyBr5E+wGcLgm5GK6HZw6cvKcxBllA3eo7wUZ++KT7ubg7Wir3AZUT4dFUR5Kp2RoOuAk/zu/sGg3Ce2ilOiVazfeeHtCssMmZ0iLEEze5yZ+wWrJ5XTjjmSBYmbulutPjMCiKMfS368jXyKcv7PkYsDntELjpz+Qp1ABTO++/nLO/wLFOqRbHeGJnE5pSYD74Z0lkyCawKIoZ/KqjLJkAquq8jHNg4AmCAPlWwWTlSdelEB25GCXfLYbtIJ9c7RH2n4aa9b/XzEbqVKF0MWRfYV5IbiSsYR6fsedX1i54mGdCaz5hSW4KqXxAYnwsSgt4fQ7A537j8urMwNYCDy3Na3TWct74tFvu1tnxJm4qzRPYFEBUyEDCniW6M4BkyPYeQ1lJRmx4UanczJivaG+Ns0AFj6rvm517+C4PPyMX5gGufBRR2qrJGDFu8jp+5QLhX7IbCCwqFKTKKN8xH7fsueC77BQdfWGjgEJ14QAIKcExzuKbY52vnpcjhWxMdBqZ19ntbM3rNXFkJCiCqH+7u0YtzpOx5EQTKX/FYEVoj+En5oRFgjS077VdQ3PcHUIISSAhZhXHiHCbcHo4QEHB7cVWbsqfa490BQjsKgSlCijrNNQ3qngpASn0hs1y/0UzE5zYx38kbIWs2ZwjQfCSRB5YmpuZvaWZMJO1P8TZSFwJlWVj4FWDz7/IrjfLIFFlWxgCGx5O0k8f8cqEKrDKTClIbIGJwBUhWsqPUFVBpHh1GItUdAKzLr38aeXpmbxs+T9wm8KyylxWPh13zapJ7CoUtaB4VOeL2mJYlUA1t2l+9b4X1iyizoRuKVPNsHdAC67W5s8mbe2CnWdn9ZZDE3FgKIeVlXoMfAIp20XUfqcVgQWVZqycqDyMOkudvCtXPGwNf6Ts0KAV3Ia65Y83wpcw/ngAd71d7e6XjMFqgBi+QRWOqfAx+zaEoYFlwksivJYnfvfLMwLAV7WrHZtFcg1M3dbuVBoOa/OwwDWyKEuR3Gi6HCjQ2GxRLihfq2dXTJsw0NgUZSXwqg2LM7pYqiLosl44KVzFmvPwFb0JwfALM3SwzgmEKx8U6lzcFcN1f/xIIFFeSZlhztDae65EUGTztMkBqchsiZnQTudYApRGB6Ay5nJ6xLAgWg79hwDs5RZDjjUps7Dyvk4uDZNVNmVplHOr+X7KyawqMJpYDjhB2B1vnpcZ659/s6SBFhP1lRKQKPjRMTkkdgxIz/bCml3ZR1aJWf0G/T90Uf3P7E7TnG/Yh1x8zNVOhJ7UzSNmAwB9iy7u3hf82RgdrY9s64j1iR3PWCWXXlinKSSVtZLtD6tTyuYPvvKOTJgFX0XIYFFlZQwooRh0ZHrUipOs+fD1ZV7d22Rmxc7Vyh3i4DUS883O+02JilVKi+5YzgtSGBR1DfkKPFqZvaWMqbL+e/y9AU7qwUTJJkhyonaIyfOStxiVehx0MrFJpvZm791+pY1PzECi6J0hbHtKPFqZk5ZfyZiBxd3wVGsJYrwTTOYFUkMErKAgO6WAu1qEyr74lydo8OiKI/Uuf+4w3G7KOeOJD5yHRwhfJPkMRxIm9I+euKc3emBLDiIO1rdXbxnd1hljwk6LIryLBh0UZhBPj0vIYvJbA5wY+ezcD6ppYBRmx6uYouP61eXLFnKJ7CULSoILIrS80oLi+6W2ydU64l2aBDVr1yfMHyW3WwRjJUAYk7+VoUeb9vW6Pp1H3z2hd1pp3q4uoM7gUVR2sHgq8fd/aKyhHnr5qgLq6Ij0CHnuqE4pbFc9goxYNtzje4iwdQ52yWyxjZHDeFOYFGUWvKlNLksIyPNxupobbKbhxalGkzOHF4pmz4i7Mo5W9T23FMmW2dEST+7/+3ZpeibLW9kT2BRlFrypTQdxVX92SVdtgyjpKRjeirnYbOPjCjSRT9ETXsl9hIpyO517VYCiyrHYNAw/XosoajTkt4+PttkGc5Dg0HZpMi2VzBWknwITbJL8NrTvtXwUyKwKEohjEDzOEUZFYarQxKTJd/erKNtTesyAsNE1ptSTjCpjeSFGds3WBNS7r72TzxIYFFBDQadJl7Z2of4ZfkTJJuuRWctw8BQXswvUltlHgxKAjrllnIr2cI38SCBRQVS7hKvcmpUFe/AZO21D5pEI0KTE9iw/huV9jJiN8Ng8O7ivTPvXzexV76KBwksKnjytvwxwKdkFmyIZIVOp8mzXHYmS7ldRi4YwPHTU5InjBzsUnw4C4ua5ZgJLIrKLc/LHx9V4Q/UkIdOo4nLJsyyA5NJu2zQCmclWZSItUSVx1fGywQWRclkXv44p2VT5iggKpQMb0EHQ2Zlx2uu7ZXyfKy+jYcU9gqwK2T3bAKLKjVplj92oQMam3swwiUEMWRWNrAa6lw2BNM5E/l7+cp4nvNJ0T4CiwpmMGiceGUnOCyd2Xe5KxGkcJcBL3rKp/5qdb5x1cEQn4+SVnCLyh3Urndo5lvfqvhelCOB8r8wpH/x9kT+jn917raynHGkdtWyimWS+PEP//KvCDBxkD/9k+86PQH8bmpz8rp/V4PXcu5Al+TzVhXJebG3/vqnykP1Do77pDwDgUUFUn87eT2vx8c4//aKf6Och8YTPrQ6p8oG829u/T94nD9b873ly7/liMjvT/9G/Lxh/fedVhMVmbSgnjzwPP2LXuUOahwKwPLnZUBgUdTXAzXW8kMlKRBPJS5My7tRLH70z3//vz/8ziMr9bkDusFh/fMnn4mX0IcdjNX46anrv7mjBOK7r/9M2RoH4H7upSM+nL0S4hwWRX0tzZyJiyP7lHNMIg/+jbcn9Ge1RFI7GKdZRgZYGT/9wWh8UjnZD1rpnHOFp0m5dFgUlV/BNy2rWKYMDEWtBUSpyq5fcEzJHYtLgkTyJyOgg1FCLKmcwMIBkzHgDKycTrCpSSsc87/89xN+/oIILIrKHLQbGyPK0Ekw63dL93Ump0WR0ivXboBf33lkBUJFG2D9y9//44cNkTV2c/ZWqeK52/9r4tr7//B/NTskglMXR/fpTOHj4D/6j//jwedf+PnbYednisrUjj3Hbr43qMxUstIvD1oJTZoJlqKKHh6AXaS2CoYLj/S9zcKCZRgxhHtgE/4E8pxOLcEqvvv6y5oJqHjXvp26SmlZxQ+6eIFSVLYxmX5nQPPJ8QvTJjli4FcKUvN3FlNzWB/d/8SEIAPdrcpiDCn1Do77MK+dISFFaQmm5sOFJc0WNQi42v7iqatfzVU51R/+5V9Fu0OBJ4SN4mfX0RniWRgrSSWvDI0mJv9q6FeB+F4ILIrKrZnZ2/rMQtgFQODPv7t2o7jTQHvbt7711z/VzzsFrVw38iCwKMpfzLr38af6Rak21H//pf+wUXMm3nMlZ6x+pszXz3iDz700FKBvhMCiKJmuXLuhk+iQEmABUwZqgHQFwxZOb+TQiwPdrY7y4y9NzYFWPl8WzBAn3SlKLQBIWe4uW6K8RPz8dP5W3wDHHmnpm9KIBAksiioEsyqS+U3xC9OJ89MednNoiKze3doU2xwNV4dc/HpAaUVgUZQzTFwc2ee6rp4g10Sy86CL7S94XTip5sY615wS6tx/3G+FjwksisqL9Le5KOE1M3tbtIAXHeor0jpQpIomN0TW4If6ZK9TE0ilXnRT52F/1o0hsCgqX3KUk+kTGWa3+kRcJaQox4IVgjna+FSdSVebggmQ+qsjv+odHA/WgiCBRVGeaX5haSx++bPP/2DS26YwxmpHz99IuhMyJKSoMlK4JjRysMuH2JpfWEQMqGwIRGBRVNkJwOrvbvUJtkT+V3CXAgksiioQtno0etLkTzOzt4+ePFuSqCKwKCpfQWLPri1iL3TBXnQ0MTkWnyyxAJDAoqjCCVardXMUf+aPXFYO/YXpvO7+IbAoquxCxY2NkWbrTw8muRD3XZqaFRnzZcIpAouiiqMGK219Tbg61JyElxJhwFMyLf5Wsh/irZIP+ggsigqAwjWhVH13sXGHnwmBRVFUgMVGqhRFEVgURVEEFkVRBBZFURSBRVEURWBRFEVgURRFEVgURVEEFkVRBBZFURSBRVEURWBRFEVgURRFEVgURVEEFkVRBBZFURSBRVEURWBRFEVgURRFEVgURVEEFkVRBBZFURSBRVEURWBRFEVgURRFEVgURVEEFkVRBBZFURSBRVEUgcWPgKIoAouiKIrAoiiqXPX/BRgA+7c+FpMYHDEAAAAASUVORK5CYII=;" vertex="1" parent="-8JmMAzlH7m0WHt6DJnb-19">
          <mxGeometry x="70" y="114" width="70" height="70" as="geometry" />
        </mxCell>
        <mxCell id="-8JmMAzlH7m0WHt6DJnb-22" value="&lt;font style=&quot;font-size: 18px;&quot;&gt;通知機能&lt;/font&gt;" style="swimlane;whiteSpace=wrap;html=1;startSize=60;fontSize=26;fillColor=none;fontColor=#5D5D5D;strokeColor=#999999;rounded=1;arcSize=6;" vertex="1" parent="-8JmMAzlH7m0WHt6DJnb-1">
          <mxGeometry x="580" y="340" width="210" height="200" as="geometry" />
        </mxCell>
        <mxCell id="-8JmMAzlH7m0WHt6DJnb-23" value="イベント発生通知" style="rounded=1;whiteSpace=wrap;html=1;strokeColor=#002B62;fontColor=#5D5D5D;fontSize=14;fontStyle=1;fillColor=#FFFFFF;" vertex="1" parent="-8JmMAzlH7m0WHt6DJnb-22">
          <mxGeometry x="15" y="72.5" width="180" height="47.5" as="geometry" />
        </mxCell>
        <mxCell id="-8JmMAzlH7m0WHt6DJnb-24" value="" style="shape=image;verticalLabelPosition=bottom;labelBackgroundColor=default;verticalAlign=top;aspect=fixed;imageAspect=0;image=data:image/svg+xml,PHN2ZyB4bWxuczp4bGluaz0iaHR0cDovL3d3dy53My5vcmcvMTk5OS94bGluayIgeG1sbnM9Imh0dHA6Ly93d3cudzMub3JnLzIwMDAvc3ZnIiB4bWw6c3BhY2U9InByZXNlcnZlIiBzdHlsZT0id2lkdGg6IDI1NnB4OyBoZWlnaHQ6IDI1NnB4OyBvcGFjaXR5OiAxOyIgdmlld0JveD0iMCAwIDUxMiA1MTIiIHk9IjBweCIgeD0iMHB4IiBpZD0iX3gzMl8iIHZlcnNpb249IjEuMSI+JiN4YTs8c3R5bGUgdHlwZT0idGV4dC9jc3MiPiYjeGE7CS5zdDB7ZmlsbDojNEI0QjRCO30mI3hhOzwvc3R5bGU+JiN4YTs8Zz4mI3hhOwk8cGF0aCBzdHlsZT0iZmlsbDogcmdiKDkzLCA5MywgOTMpOyIgZD0iTTE5My40OTksNDU5LjI5OGM1LjIzNywzMC41NCwzMS41MTgsNTIuNzAyLDYyLjQ5LDUyLjcwMmMzMC45OCwwLDU3LjI2OS0yMi4xNjIsNjIuNTA2LTUyLjcwMmwwLjMyLTEuODYmIzEwOyYjOTsmIzk7SDE5My4xNzlMMTkzLjQ5OSw0NTkuMjk4eiIgY2xhc3M9InN0MCIvPiYjeGE7CTxwYXRoIHN0eWxlPSJmaWxsOiByZ2IoOTMsIDkzLCA5Myk7IiBkPSJNNDY5Ljc4MiwzNzEuOThjLTUuMTI2LTUuMTI4LTEwLjM0OS05LjQ2NC0xNS40MDItMTMuNjYxYy0yMS4yNTItMTcuNjQ4LTM5LjYwOC0zMi44ODgtMzkuNjA4LTk2LjE2OHYtNTAuMTk0JiMxMDsmIzk7JiM5O2MwLTczLjgwOC01MS44NTgtMTM4LjU3Mi0xMjMuNjEtMTU0LjgxYzIuODc2LTUuNjQsNC4zMzQtMTEuNTY4LDQuMzM0LTE3LjY1NUMyOTUuNDk2LDE3LjcxOCwyNzcuNzc3LDAsMjU1Ljk5NSwwJiMxMDsmIzk7JiM5O2MtMjEuNzc2LDAtMzkuNDkyLDE3LjcxOC0zOS40OTIsMzkuNDkyYzAsNi4wOTEsMS40NTYsMTIuMDE4LDQuMzM0LDE3LjY1NWMtNzEuNzU1LDE2LjIzOC0xMjMuNjEsODEuMDAyLTEyMy42MSwxNTQuODF2NTAuMTk0JiMxMDsmIzk7JiM5O2MwLDYzLjI4LTE4LjM1Niw3OC41MjEtMzkuNjA4LDk2LjE2OGMtNS4wNTIsNC4xOTYtMTAuMjc2LDguNTMzLTE1LjQwMiwxMy42NjFsLTAuNDY2LDAuNDY2djQ5Ljc5OGg0MjguNDk2di00OS43OTgmIzEwOyYjOTsmIzk7TDQ2OS43ODIsMzcxLjk4eiIgY2xhc3M9InN0MCIvPiYjeGE7PC9nPiYjeGE7PC9zdmc+;" vertex="1" parent="-8JmMAzlH7m0WHt6DJnb-22">
          <mxGeometry x="79.5" y="134" width="51" height="51" as="geometry" />
        </mxCell>
        <mxCell id="-8JmMAzlH7m0WHt6DJnb-25" value="" style="shape=flexArrow;endArrow=classic;html=1;rounded=0;exitX=1;exitY=0.5;exitDx=0;exitDy=0;entryX=0;entryY=0.75;entryDx=0;entryDy=0;fillColor=#5335E5;strokeColor=none;" edge="1" parent="-8JmMAzlH7m0WHt6DJnb-1" target="-8JmMAzlH7m0WHt6DJnb-19">
          <mxGeometry width="50" height="50" relative="1" as="geometry">
            <mxPoint x="465.80999999999995" y="340" as="sourcePoint" />
            <mxPoint x="638" y="339.5" as="targetPoint" />
            <Array as="points">
              <mxPoint x="535" y="340" />
              <mxPoint x="535" y="270" />
            </Array>
          </mxGeometry>
        </mxCell>
        <mxCell id="-8JmMAzlH7m0WHt6DJnb-26" value="" style="shape=flexArrow;endArrow=classic;html=1;rounded=0;exitX=1;exitY=0.5;exitDx=0;exitDy=0;entryX=0;entryY=0.5;entryDx=0;entryDy=0;fillColor=#5335E5;strokeColor=none;" edge="1" parent="-8JmMAzlH7m0WHt6DJnb-1" target="-8JmMAzlH7m0WHt6DJnb-22">
          <mxGeometry width="50" height="50" relative="1" as="geometry">
            <mxPoint x="465.80999999999995" y="340" as="sourcePoint" />
            <mxPoint x="628" y="400" as="targetPoint" />
            <Array as="points">
              <mxPoint x="535" y="340" />
              <mxPoint x="535" y="440" />
            </Array>
          </mxGeometry>
        </mxCell>
        <mxCell id="-8JmMAzlH7m0WHt6DJnb-27" value="&lt;font style=&quot;font-size: 20px;&quot;&gt;外部サービス&lt;/font&gt;" style="swimlane;whiteSpace=wrap;html=1;startSize=50;fillColor=#EA6B66;strokeColor=none;fontSize=27;fontColor=#FFFFFF;rounded=1;arcSize=4;shadow=0;glass=0;swimlaneFillColor=#F6F6F6;gradientColor=none;" vertex="1" parent="1">
          <mxGeometry x="-560" y="3690" width="360" height="170" as="geometry" />
        </mxCell>
        <mxCell id="-8JmMAzlH7m0WHt6DJnb-28" value="" style="shape=image;verticalLabelPosition=bottom;labelBackgroundColor=default;verticalAlign=top;aspect=fixed;imageAspect=0;image=data:image/svg+xml,PHN2ZyB4bWxuczp4bGluaz0iaHR0cDovL3d3dy53My5vcmcvMTk5OS94bGluayIgeG1sbnM9Imh0dHA6Ly93d3cudzMub3JnLzIwMDAvc3ZnIiB4bWw6c3BhY2U9InByZXNlcnZlIiBzdHlsZT0id2lkdGg6IDI1NnB4OyBoZWlnaHQ6IDI1NnB4OyBvcGFjaXR5OiAxOyIgdmlld0JveD0iMCAwIDUxMiA1MTIiIHk9IjBweCIgeD0iMHB4IiBpZD0iX3gzMl8iIHZlcnNpb249IjEuMSI+JiN4YTs8c3R5bGUgdHlwZT0idGV4dC9jc3MiPiYjeGE7CS5zdDB7ZmlsbDojNEI0QjRCO30mI3hhOzwvc3R5bGU+JiN4YTs8Zz4mI3hhOwk8cGF0aCBzdHlsZT0iZmlsbDogcmdiKDkzLCA5MywgOTMpOyIgZD0iTTUxMC43NDYsMTEwLjM2MWMtMi4xMjgtMTAuNzU0LTYuOTI2LTIwLjkxOC0xMy45MjYtMjkuNDYzYy0xLjQyMi0xLjc5NC0yLjkwOS0zLjM5LTQuNTM1LTUuMDA5JiMxMDsmIzk7JiM5O2MtMTIuNDU0LTEyLjUyLTI5Ljc3OC0xOS43MDEtNDcuNTMxLTE5LjcwMUg2Ny4yNDRjLTE3Ljk1MSwwLTM0LjgzNCw3LTQ3LjUzOSwxOS43MDhjLTEuNjA4LDEuNjA0LTMuMDk5LDMuMjE2LTQuNTc1LDUuMDY3JiMxMDsmIzk7JiM5O2MtNi45Nyw4LjUwOS0xMS43NDcsMTguNjU5LTEzLjgyNCwyOS40MjhDMC40MzgsMTE0LjYyLDAsMTE5LjAwMiwwLDEyMy40MzV2MjY1LjEzN2MwLDkuMjI0LDEuODc0LDE4LjIwNiw1LjU4OSwyNi43NDUmIzEwOyYjOTsmIzk7YzMuMjE1LDcuNTgzLDguMDkzLDE0Ljc3MiwxNC4xMTIsMjAuNzg4YzEuNTE2LDEuNTA5LDMuMDIyLDIuOTAxLDQuNjMsNC4yNThjMTIuMDM0LDkuOTY2LDI3LjI3MiwxNS40NSw0Mi45MTMsMTUuNDVoMzc3LjUxJiMxMDsmIzk7JiM5O2MxNS43NDIsMCwzMC45NjUtNS41MDUsNDIuOTY3LTE1LjU2YzEuNjA0LTEuMjk4LDMuMDkxLTIuNjYxLDQuNTc4LTQuMTQ4YzUuODE4LTUuODEyLDEwLjQ0Mi0xMi40OSwxMy43NjYtMTkuODU0bDAuNDM4LTEuMDUmIzEwOyYjOTsmIzk7YzMuNjQ2LTguMzc3LDUuNDk3LTE3LjMzLDUuNDk3LTI2LjYyOFYxMjMuNDM1QzUxMiwxMTkuMDYsNTExLjU3OCwxMTQuNjQ5LDUxMC43NDYsMTEwLjM2MXogTTM0LjgyMyw5OS4xMDQmIzEwOyYjOTsmIzk7YzAuOTUxLTEuMzkyLDIuMTY1LTIuODIxLDMuNzE0LTQuMzgyYzcuNjg5LTcuNjg1LDE3Ljg4Ni0xMS45MTQsMjguNzA2LTExLjkxNGgzNzcuNTFjMTAuOTE1LDAsMjEuMTE1LDQuMjM2LDI4LjcxOSwxMS45MjkmIzEwOyYjOTsmIzk7YzEuMzEzLDEuMzI3LDIuNTY3LDIuOCwzLjY2MSw0LjI3MmwyLjg4NywzLjg4bC0yMDEuNSwxNzUuNjE2Yy02LjIxMiw1LjQ0Ni0xNC4yMSw4LjQ0My0yMi41MjMsOC40NDMmIzEwOyYjOTsmIzk7Yy04LjIzMSwwLTE2LjIyMi0yLjk5LTIyLjUwOC04LjQzNkwzMi4xOSwxMDIuOTM5TDM0LjgyMyw5OS4xMDR6IE0yNi43NTUsMzkwLjkxM2MtMC4xMDktMC43MjItMC4xMzQtMS41MjQtMC4xMzQtMi4zNDFWMTI4LjkyNSYjMTA7JiM5OyYjOTtsMTU2LjM3LDEzNi40MTFMMjguMTk5LDQwMC4yOTdMMjYuNzU1LDM5MC45MTN6IE00NjQuODk5LDQyMy44NGMtNi4wNTIsMy40OTItMTMuMDIyLDUuMzQ0LTIwLjE0NSw1LjM0NEg2Ny4yNDQmIzEwOyYjOTsmIzk7Yy03LjEyNywwLTE0LjA5NC0xLjg1Mi0yMC4xNDItNS4zNDRsLTYuMzI4LTMuNjY4bDE1OS45MzYtMTM5LjM3OWwxNy41MjgsMTUuMjQ2YzEwLjUxNCw5LjEyOCwyMy45MjIsMTQuMTYsMzcuNzYxLDE0LjE2JiMxMDsmIzk7JiM5O2MxMy44OSwwLDI3LjMyLTUuMDMyLDM3LjgyNy0xNC4xNmwxNy41MjEtMTUuMjUzTDQ3MS4yMjgsNDIwLjE4TDQ2NC44OTksNDIzLjg0eiBNNDg1LjM3MiwzODguNTcyJiMxMDsmIzk7JiM5O2MwLDAuODAzLTAuMDE1LDEuNTk3LTAuMTE2LDIuMzA0bC0xLjM4Niw5LjQ3MkwzMjkuMDEyLDI2NS40MDlsMTU2LjM2LTEzNi40MThWMzg4LjU3MnoiIGNsYXNzPSJzdDAiLz4mI3hhOzwvZz4mI3hhOzwvc3ZnPg==;" vertex="1" parent="-8JmMAzlH7m0WHt6DJnb-27">
          <mxGeometry x="60" y="70" width="72" height="72" as="geometry" />
        </mxCell>
        <mxCell id="-8JmMAzlH7m0WHt6DJnb-29" value="" style="group" vertex="1" connectable="0" parent="-8JmMAzlH7m0WHt6DJnb-27">
          <mxGeometry x="191.25" y="59" width="108.42" height="103" as="geometry" />
        </mxCell>
        <mxCell id="-8JmMAzlH7m0WHt6DJnb-30" value="" style="sketch=0;outlineConnect=0;fontColor=#232F3E;gradientColor=none;strokeColor=#232F3E;fillColor=#ffffff;dashed=0;verticalLabelPosition=bottom;verticalAlign=top;align=center;html=1;fontSize=12;fontStyle=0;aspect=fixed;shape=mxgraph.aws4.resourceIcon;resIcon=mxgraph.aws4.corporate_data_center;" vertex="1" parent="-8JmMAzlH7m0WHt6DJnb-29">
          <mxGeometry width="102.99887645259572" height="102.99887645259572" as="geometry" />
        </mxCell>
        <mxCell id="-8JmMAzlH7m0WHt6DJnb-31" value="" style="verticalLabelPosition=bottom;sketch=0;aspect=fixed;html=1;verticalAlign=top;strokeColor=none;align=center;outlineConnect=0;shape=mxgraph.citrix.inspection;" vertex="1" parent="-8JmMAzlH7m0WHt6DJnb-29">
          <mxGeometry x="52.854749999999996" y="42.4875" width="45.06200844801063" height="41.84329355886702" as="geometry" />
        </mxCell>
        <mxCell id="-8JmMAzlH7m0WHt6DJnb-32" value="&lt;font style=&quot;font-size: 20px;&quot;&gt;OASE Agent&lt;/font&gt;" style="swimlane;whiteSpace=wrap;html=1;startSize=50;fillColor=#00A9AC;strokeColor=none;fontSize=27;fontColor=#FFFFFF;rounded=1;arcSize=4;shadow=0;glass=0;swimlaneFillColor=#F6F6F6;gradientColor=none;" vertex="1" parent="1">
          <mxGeometry x="-560" y="3870" width="360" height="170" as="geometry" />
        </mxCell>
        <mxCell id="-8JmMAzlH7m0WHt6DJnb-33" value="イベント取得" style="rounded=1;whiteSpace=wrap;html=1;strokeColor=#00A9AC;fontColor=#5D5D5D;fontSize=16;fontStyle=1;fillColor=#FFFFFF;" vertex="1" parent="-8JmMAzlH7m0WHt6DJnb-32">
          <mxGeometry x="130" y="82" width="180" height="48" as="geometry" />
        </mxCell>
        <mxCell id="-8JmMAzlH7m0WHt6DJnb-34" value="" style="shape=image;verticalLabelPosition=bottom;labelBackgroundColor=default;verticalAlign=top;aspect=fixed;imageAspect=0;image=data:image/svg+xml,PHN2ZyB4bWxuczp4bGluaz0iaHR0cDovL3d3dy53My5vcmcvMTk5OS94bGluayIgeG1sbnM9Imh0dHA6Ly93d3cudzMub3JnLzIwMDAvc3ZnIiB4bWw6c3BhY2U9InByZXNlcnZlIiBzdHlsZT0id2lkdGg6IDI1NnB4OyBoZWlnaHQ6IDI1NnB4OyBvcGFjaXR5OiAxOyIgdmlld0JveD0iMCAwIDUxMiA1MTIiIHk9IjBweCIgeD0iMHB4IiBpZD0iX3gzMl8iIHZlcnNpb249IjEuMSI+JiN4YTs8c3R5bGUgdHlwZT0idGV4dC9jc3MiPiYjeGE7CS5zdDB7ZmlsbDojNEI0QjRCO30mI3hhOzwvc3R5bGU+JiN4YTs8Zz4mI3hhOwk8cGF0aCBzdHlsZT0iZmlsbDogcmdiKDkzLCA5MywgOTMpOyIgZD0iTTEwMS43MjMsMjMzLjYzNEgwdjQ0Ljc0MWgxMDEuNzIzYzkuODcsMzYuNzg0LDQzLjM0NCw2My45MDQsODMuMjQ4LDYzLjkwNGg2Mi4zMVYxNjkuNzIyaC02Mi4zMSYjMTA7JiM5OyYjOTtDMTQ1LjA2NiwxNjkuNzIyLDExMS41ODQsMTk2Ljg0MiwxMDEuNzIzLDIzMy42MzR6IiBjbGFzcz0ic3QwIi8+JiN4YTsJPHBhdGggc3R5bGU9ImZpbGw6IHJnYig5MywgOTMsIDkzKTsiIGQ9Ik01MTIsMjMzLjYzNEg0MTAuMjY5Yy05Ljg2Mi0zNi43OTItNDMuMzM2LTYzLjkxMi04My4yNC02My45MTJIMjY0LjcydjE3Mi41NTdoNjIuMzA5JiMxMDsmIzk7JiM5O2MzOS44OTYsMCw3My4zNjktMjcuMTIsODMuMjQtNjMuOTA0SDUxMlYyMzMuNjM0eiIgY2xhc3M9InN0MCIvPiYjeGE7PC9nPiYjeGE7PC9zdmc+;" vertex="1" parent="-8JmMAzlH7m0WHt6DJnb-32">
          <mxGeometry x="30" y="65" width="82" height="82" as="geometry" />
        </mxCell>
        <mxCell id="-8JmMAzlH7m0WHt6DJnb-35" value="&lt;font style=&quot;font-size: 20px;&quot;&gt;ユーザー&lt;/font&gt;" style="swimlane;whiteSpace=wrap;html=1;startSize=50;fillColor=#FFB570;strokeColor=none;fontSize=27;fontColor=#FFFFFF;rounded=1;arcSize=4;shadow=0;glass=0;swimlaneFillColor=#F6F6F6;gradientColor=none;" vertex="1" parent="1">
          <mxGeometry x="-560" y="4050" width="360" height="250" as="geometry" />
        </mxCell>
        <mxCell id="-8JmMAzlH7m0WHt6DJnb-36" value="設定投入" style="rounded=1;whiteSpace=wrap;html=1;strokeColor=#FFB570;fontColor=#5D5D5D;fontSize=16;fontStyle=1;fillColor=#FFFFFF;" vertex="1" parent="-8JmMAzlH7m0WHt6DJnb-35">
          <mxGeometry x="130" y="80" width="180" height="48" as="geometry" />
        </mxCell>
        <mxCell id="-8JmMAzlH7m0WHt6DJnb-37" value="" style="rounded=1;whiteSpace=wrap;html=1;fillColor=none;strokeColor=#999999;" vertex="1" parent="-8JmMAzlH7m0WHt6DJnb-35">
          <mxGeometry x="85" y="160" width="190" height="60" as="geometry" />
        </mxCell>
        <mxCell id="-8JmMAzlH7m0WHt6DJnb-38" value="" style="shape=image;verticalLabelPosition=bottom;labelBackgroundColor=default;verticalAlign=top;aspect=fixed;imageAspect=0;image=data:image/svg+xml,PHN2ZyB4bWxuczp4bGluaz0iaHR0cDovL3d3dy53My5vcmcvMTk5OS94bGluayIgeG1sbnM9Imh0dHA6Ly93d3cudzMub3JnLzIwMDAvc3ZnIiB4bWw6c3BhY2U9InByZXNlcnZlIiBzdHlsZT0id2lkdGg6IDI1NnB4OyBoZWlnaHQ6IDI1NnB4OyBvcGFjaXR5OiAxOyIgdmlld0JveD0iMCAwIDUxMiA1MTIiIGhlaWdodD0iNTEycHgiIHdpZHRoPSI1MTJweCIgeT0iMHB4IiB4PSIwcHgiIGlkPSJfeDMyXyIgdmVyc2lvbj0iMS4xIj4mI3hhOzxzdHlsZSB0eXBlPSJ0ZXh0L2NzcyI+JiN4YTsmI3hhOwkuc3Qwe2ZpbGw6IzRCNEI0Qjt9JiN4YTsmI3hhOzwvc3R5bGU+JiN4YTs8Zz4mI3hhOwk8cGF0aCBzdHlsZT0iZmlsbDogcmdiKDkzLCA5MywgOTMpOyIgZD0iTTMzMS4xODgsODAuNDY5SDE5LjVDOC43ODEsODAuNDY5LDAsODkuMjUsMCw5OS45ODR2MjU1LjY0MWMwLDEwLjcxOSw4Ljc4MSwxOS41LDE5LjUsMTkuNWg5MC40Mzh2MzcuNzE5JiMxMDsmIzk7JiM5O0g4NC41MTZ2MTguNjg4aDE4MS42NzJ2LTE4LjY4OEgyNDAuNzV2LTM3LjcxOWg5MC40MzhjMTAuNzE5LDAsMTkuNS04Ljc4MSwxOS41LTE5LjVWOTkuOTg0JiMxMDsmIzk7JiM5O0MzNTAuNjg4LDg5LjI1LDM0MS45MDYsODAuNDY5LDMzMS4xODgsODAuNDY5eiBNMzI1LjMxMywzNDEuOTY5SDI1LjM1OVYxMDUuODI4aDI5OS45NTNWMzQxLjk2OXoiIGNsYXNzPSJzdDAiLz4mI3hhOwk8cGF0aCBzdHlsZT0iZmlsbDogcmdiKDkzLCA5MywgOTMpOyIgZD0iTTQ5Mi4wOTQsODAuNDY5SDM5MS40NjljLTEwLjk4NCwwLTE5LjkwNiw4LjkwNi0xOS45MDYsMTkuOTA2djMxMS4yNWMwLDExLDguOTIyLDE5LjkwNiwxOS45MDYsMTkuOTA2JiMxMDsmIzk7JiM5O2gxMDAuNjI1YzExLDAsMTkuOTA2LTguOTA2LDE5LjkwNi0xOS45MDZ2LTMxMS4yNUM1MTIsODkuMzc1LDUwMy4wOTQsODAuNDY5LDQ5Mi4wOTQsODAuNDY5eiBNNDQxLjc4MSwzNDMuNzY2JiMxMDsmIzk7JiM5O2MtMTIuNTk0LDAtMjIuODEzLTEwLjIxOS0yMi44MTMtMjIuODEzYzAtMTIuNjA5LDEwLjIxOS0yMi44MjgsMjIuODEzLTIyLjgyOHMyMi44MjgsMTAuMjE5LDIyLjgyOCwyMi44MjgmIzEwOyYjOTsmIzk7QzQ2NC42MDksMzMzLjU0Nyw0NTQuMzc1LDM0My43NjYsNDQxLjc4MSwzNDMuNzY2eiBNNDc3Ljc4MSwyMDEuNTk0aC03MC4yMTl2LTE0LjA0N2g3MC4yMTlWMjAxLjU5NHogTTQ3Ny43ODEsMTU5LjQ1M2gtNzAuMjE5JiMxMDsmIzk7JiM5O3YtMTQuMDMxaDcwLjIxOVYxNTkuNDUzeiIgY2xhc3M9InN0MCIvPiYjeGE7PC9nPiYjeGE7PC9zdmc+;" vertex="1" parent="-8JmMAzlH7m0WHt6DJnb-35">
          <mxGeometry x="30" y="68" width="72" height="72" as="geometry" />
        </mxCell>
        <mxCell id="-8JmMAzlH7m0WHt6DJnb-39" value="" style="shape=image;verticalLabelPosition=bottom;labelBackgroundColor=default;verticalAlign=top;aspect=fixed;imageAspect=0;image=data:image/svg+xml,PHN2ZyB4bWxuczp4bGluaz0iaHR0cDovL3d3dy53My5vcmcvMTk5OS94bGluayIgeG1sbnM9Imh0dHA6Ly93d3cudzMub3JnLzIwMDAvc3ZnIiB4bWw6c3BhY2U9InByZXNlcnZlIiBzdHlsZT0id2lkdGg6IDI1NnB4OyBoZWlnaHQ6IDI1NnB4OyBvcGFjaXR5OiAxOyIgdmlld0JveD0iMCAwIDUxMiA1MTIiIHk9IjBweCIgeD0iMHB4IiBpZD0iX3gzMl8iIHZlcnNpb249IjEuMSI+JiN4YTs8c3R5bGUgdHlwZT0idGV4dC9jc3MiPiYjeGE7CS5zdDB7ZmlsbDojNEI0QjRCO30mI3hhOzwvc3R5bGU+JiN4YTs8Zz4mI3hhOwk8cGF0aCBzdHlsZT0iZmlsbDogcmdiKDkzLCA5MywgOTMpOyIgZD0iTTUxMC43NDYsMTEwLjM2MWMtMi4xMjgtMTAuNzU0LTYuOTI2LTIwLjkxOC0xMy45MjYtMjkuNDYzYy0xLjQyMi0xLjc5NC0yLjkwOS0zLjM5LTQuNTM1LTUuMDA5JiMxMDsmIzk7JiM5O2MtMTIuNDU0LTEyLjUyLTI5Ljc3OC0xOS43MDEtNDcuNTMxLTE5LjcwMUg2Ny4yNDRjLTE3Ljk1MSwwLTM0LjgzNCw3LTQ3LjUzOSwxOS43MDhjLTEuNjA4LDEuNjA0LTMuMDk5LDMuMjE2LTQuNTc1LDUuMDY3JiMxMDsmIzk7JiM5O2MtNi45Nyw4LjUwOS0xMS43NDcsMTguNjU5LTEzLjgyNCwyOS40MjhDMC40MzgsMTE0LjYyLDAsMTE5LjAwMiwwLDEyMy40MzV2MjY1LjEzN2MwLDkuMjI0LDEuODc0LDE4LjIwNiw1LjU4OSwyNi43NDUmIzEwOyYjOTsmIzk7YzMuMjE1LDcuNTgzLDguMDkzLDE0Ljc3MiwxNC4xMTIsMjAuNzg4YzEuNTE2LDEuNTA5LDMuMDIyLDIuOTAxLDQuNjMsNC4yNThjMTIuMDM0LDkuOTY2LDI3LjI3MiwxNS40NSw0Mi45MTMsMTUuNDVoMzc3LjUxJiMxMDsmIzk7JiM5O2MxNS43NDIsMCwzMC45NjUtNS41MDUsNDIuOTY3LTE1LjU2YzEuNjA0LTEuMjk4LDMuMDkxLTIuNjYxLDQuNTc4LTQuMTQ4YzUuODE4LTUuODEyLDEwLjQ0Mi0xMi40OSwxMy43NjYtMTkuODU0bDAuNDM4LTEuMDUmIzEwOyYjOTsmIzk7YzMuNjQ2LTguMzc3LDUuNDk3LTE3LjMzLDUuNDk3LTI2LjYyOFYxMjMuNDM1QzUxMiwxMTkuMDYsNTExLjU3OCwxMTQuNjQ5LDUxMC43NDYsMTEwLjM2MXogTTM0LjgyMyw5OS4xMDQmIzEwOyYjOTsmIzk7YzAuOTUxLTEuMzkyLDIuMTY1LTIuODIxLDMuNzE0LTQuMzgyYzcuNjg5LTcuNjg1LDE3Ljg4Ni0xMS45MTQsMjguNzA2LTExLjkxNGgzNzcuNTFjMTAuOTE1LDAsMjEuMTE1LDQuMjM2LDI4LjcxOSwxMS45MjkmIzEwOyYjOTsmIzk7YzEuMzEzLDEuMzI3LDIuNTY3LDIuOCwzLjY2MSw0LjI3MmwyLjg4NywzLjg4bC0yMDEuNSwxNzUuNjE2Yy02LjIxMiw1LjQ0Ni0xNC4yMSw4LjQ0My0yMi41MjMsOC40NDMmIzEwOyYjOTsmIzk7Yy04LjIzMSwwLTE2LjIyMi0yLjk5LTIyLjUwOC04LjQzNkwzMi4xOSwxMDIuOTM5TDM0LjgyMyw5OS4xMDR6IE0yNi43NTUsMzkwLjkxM2MtMC4xMDktMC43MjItMC4xMzQtMS41MjQtMC4xMzQtMi4zNDFWMTI4LjkyNSYjMTA7JiM5OyYjOTtsMTU2LjM3LDEzNi40MTFMMjguMTk5LDQwMC4yOTdMMjYuNzU1LDM5MC45MTN6IE00NjQuODk5LDQyMy44NGMtNi4wNTIsMy40OTItMTMuMDIyLDUuMzQ0LTIwLjE0NSw1LjM0NEg2Ny4yNDQmIzEwOyYjOTsmIzk7Yy03LjEyNywwLTE0LjA5NC0xLjg1Mi0yMC4xNDItNS4zNDRsLTYuMzI4LTMuNjY4bDE1OS45MzYtMTM5LjM3OWwxNy41MjgsMTUuMjQ2YzEwLjUxNCw5LjEyOCwyMy45MjIsMTQuMTYsMzcuNzYxLDE0LjE2JiMxMDsmIzk7JiM5O2MxMy44OSwwLDI3LjMyLTUuMDMyLDM3LjgyNy0xNC4xNmwxNy41MjEtMTUuMjUzTDQ3MS4yMjgsNDIwLjE4TDQ2NC44OTksNDIzLjg0eiBNNDg1LjM3MiwzODguNTcyJiMxMDsmIzk7JiM5O2MwLDAuODAzLTAuMDE1LDEuNTk3LTAuMTE2LDIuMzA0bC0xLjM4Niw5LjQ3MkwzMjkuMDEyLDI2NS40MDlsMTU2LjM2LTEzNi40MThWMzg4LjU3MnoiIGNsYXNzPSJzdDAiLz4mI3hhOzwvZz4mI3hhOzwvc3ZnPg==;" vertex="1" parent="-8JmMAzlH7m0WHt6DJnb-35">
          <mxGeometry x="100" y="164" width="52" height="52" as="geometry" />
        </mxCell>
        <mxCell id="-8JmMAzlH7m0WHt6DJnb-40" value="MICROSOFT" style="text;html=1;align=center;verticalAlign=middle;resizable=0;points=[];autosize=1;strokeColor=none;fillColor=none;fontColor=#7B83EB;fontStyle=1;fontSize=15;" vertex="1" parent="-8JmMAzlH7m0WHt6DJnb-35">
          <mxGeometry x="155" y="163" width="110" height="30" as="geometry" />
        </mxCell>
        <mxCell id="-8JmMAzlH7m0WHt6DJnb-41" value="Teams" style="text;html=1;align=center;verticalAlign=middle;resizable=0;points=[];autosize=1;strokeColor=none;fillColor=none;fontColor=#464EB8;fontStyle=1;fontSize=24;" vertex="1" parent="-8JmMAzlH7m0WHt6DJnb-35">
          <mxGeometry x="165" y="177" width="90" height="40" as="geometry" />
        </mxCell>
        <mxCell id="-8JmMAzlH7m0WHt6DJnb-42" value="" style="shape=flexArrow;endArrow=classic;html=1;rounded=0;exitX=1;exitY=0.5;exitDx=0;exitDy=0;entryX=0;entryY=0.5;entryDx=0;entryDy=0;fillColor=#5335E5;strokeColor=none;" edge="1" parent="1" source="-8JmMAzlH7m0WHt6DJnb-33">
          <mxGeometry width="50" height="50" relative="1" as="geometry">
            <mxPoint x="-170" y="4000" as="sourcePoint" />
            <mxPoint x="4.179999999999836" y="4030" as="targetPoint" />
            <Array as="points">
              <mxPoint x="-140" y="3976" />
              <mxPoint x="-140" y="4030" />
            </Array>
          </mxGeometry>
        </mxCell>
        <mxCell id="-8JmMAzlH7m0WHt6DJnb-43" value="" style="shape=flexArrow;endArrow=classic;html=1;rounded=0;entryX=0.5;entryY=1;entryDx=0;entryDy=0;fillColor=#5335E5;strokeColor=none;exitX=1;exitY=0.5;exitDx=0;exitDy=0;" edge="1" parent="1" source="-8JmMAzlH7m0WHt6DJnb-36" target="-8JmMAzlH7m0WHt6DJnb-9">
          <mxGeometry width="50" height="50" relative="1" as="geometry">
            <mxPoint x="-200" y="4210" as="sourcePoint" />
            <mxPoint x="-57" y="4240" as="targetPoint" />
            <Array as="points">
              <mxPoint x="-160" y="4154" />
              <mxPoint x="-160" y="4210" />
              <mxPoint x="30" y="4210" />
              <mxPoint x="305" y="4210" />
            </Array>
          </mxGeometry>
        </mxCell>
        <mxCell id="-8JmMAzlH7m0WHt6DJnb-44" value="" style="shape=flexArrow;endArrow=classic;html=1;rounded=0;entryX=0.5;entryY=1;entryDx=0;entryDy=0;fillColor=#5335E5;strokeColor=none;" edge="1" parent="1" target="-8JmMAzlH7m0WHt6DJnb-8">
          <mxGeometry width="50" height="50" relative="1" as="geometry">
            <mxPoint x="65" y="4210" as="sourcePoint" />
            <mxPoint x="163" y="4300" as="targetPoint" />
          </mxGeometry>
        </mxCell>
        <mxCell id="-8JmMAzlH7m0WHt6DJnb-45" value="" style="shape=flexArrow;endArrow=classic;html=1;rounded=0;exitX=0.5;exitY=1;exitDx=0;exitDy=0;entryX=1;entryY=0.5;entryDx=0;entryDy=0;fillColor=#5335E5;strokeColor=none;" edge="1" parent="1" source="-8JmMAzlH7m0WHt6DJnb-22" target="-8JmMAzlH7m0WHt6DJnb-37">
          <mxGeometry width="50" height="50" relative="1" as="geometry">
            <mxPoint x="570" y="4270" as="sourcePoint" />
            <mxPoint x="633" y="4270" as="targetPoint" />
            <Array as="points">
              <mxPoint x="580" y="4270" />
              <mxPoint x="150" y="4270" />
              <mxPoint x="-70" y="4270" />
              <mxPoint x="-70" y="4240" />
            </Array>
          </mxGeometry>
        </mxCell>
        <mxCell id="-8JmMAzlH7m0WHt6DJnb-46" value="" style="shape=flexArrow;endArrow=classic;html=1;rounded=0;exitX=0;exitY=0.5;exitDx=0;exitDy=0;entryX=0;entryY=0.5;entryDx=0;entryDy=0;fillColor=#5335E5;strokeColor=none;" edge="1" parent="1" source="-8JmMAzlH7m0WHt6DJnb-27" target="-8JmMAzlH7m0WHt6DJnb-32">
          <mxGeometry width="50" height="50" relative="1" as="geometry">
            <mxPoint x="-770" y="3810" as="sourcePoint" />
            <mxPoint x="-647" y="3810" as="targetPoint" />
            <Array as="points">
              <mxPoint x="-610" y="3775" />
              <mxPoint x="-610" y="3955" />
            </Array>
          </mxGeometry>
        </mxCell>
      </root>
    </mxGraphModel>
  </diagram>
</mxfile>
